<?xml version="1.0" encoding="UTF-8"?>
<svg version="1.1" xmlns="http://www.w3.org/2000/svg" width="412" height="183">
<path d="M0 0 C135.96 0 271.92 0 412 0 C412 60.39 412 120.78 412 183 C276.04 183 140.08 183 0 183 C0 122.61 0 62.22 0 0 Z " fill="#244ABA" transform="translate(0,0)"/>
<path d="M0 0 C1.87890625 0.38671875 1.87890625 0.38671875 3.94140625 2.07421875 C5.11519387 4.96956155 4.62577201 6.3992557 3.87890625 9.38671875 C4.24747489 11.6183906 4.24747489 11.6183906 4.87890625 13.38671875 C3.88890625 13.38671875 2.89890625 13.38671875 1.87890625 13.38671875 C1.87890625 24.60671875 1.87890625 35.82671875 1.87890625 47.38671875 C8.14387616 45.29839545 12.47591421 43.72047979 17.87890625 40.38671875 C17.87890625 39.72671875 17.87890625 39.06671875 17.87890625 38.38671875 C16.74001953 38.20496094 16.74001953 38.20496094 15.578125 38.01953125 C14.58425781 37.85195312 13.59039062 37.684375 12.56640625 37.51171875 C11.58027344 37.34929687 10.59414062 37.186875 9.578125 37.01953125 C6.87890625 36.38671875 6.87890625 36.38671875 3.87890625 34.38671875 C4.20890625 33.06671875 4.53890625 31.74671875 4.87890625 30.38671875 C11.85352739 29.60043578 16.53100487 30.37923479 22.19921875 34.67578125 C23.87890625 36.38671875 23.87890625 36.38671875 24.87890625 39.38671875 C22.91261064 45.28560559 17.7801778 48.05902513 12.44140625 50.76171875 C11.26578125 51.29796875 10.09015625 51.83421875 8.87890625 52.38671875 C9.68328125 52.92296875 10.48765625 53.45921875 11.31640625 54.01171875 C13.87890625 56.38671875 13.87890625 56.38671875 15.00390625 59.32421875 C14.87890625 62.38671875 14.87890625 62.38671875 12.87109375 64.82421875 C9.41318517 67.78556083 5.98630496 69.55845126 1.87890625 71.44921875 C-2.92998098 73.68952138 -7.08953826 75.85123356 -11.12109375 79.38671875 C-11.15982062 81.72210782 -11.15982062 81.72210782 -10.12109375 84.38671875 C-7.94937185 86.31829832 -5.59508328 87.86873562 -3.12109375 89.38671875 C-3.45109375 90.04671875 -3.78109375 90.70671875 -4.12109375 91.38671875 C-8.59941563 89.85129411 -12.92536401 87.77817823 -15.12109375 83.38671875 C-15.62109375 80.63671875 -15.62109375 80.63671875 -15.12109375 77.38671875 C-13.01838817 75.06322909 -10.66013774 73.2132759 -8.12109375 71.38671875 C-8.89453125 70.82984375 -8.89453125 70.82984375 -9.68359375 70.26171875 C-10.48796875 69.64296875 -11.29234375 69.02421875 -12.12109375 68.38671875 C-12.7346875 67.94972656 -13.34828125 67.51273437 -13.98046875 67.0625 C-15.89563079 65.60314652 -17.55845925 64.2201507 -19.12109375 62.38671875 C-19.43359375 59.26171875 -19.43359375 59.26171875 -18.12109375 56.38671875 C-15.05859375 54.01171875 -15.05859375 54.01171875 -12.12109375 52.38671875 C-12.9409375 52 -13.76078125 51.61328125 -14.60546875 51.21484375 C-15.683125 50.6940625 -16.76078125 50.17328125 -17.87109375 49.63671875 C-19.47210938 48.87101562 -19.47210938 48.87101562 -21.10546875 48.08984375 C-24.0248712 46.44106205 -25.98947722 44.95883561 -28.12109375 42.38671875 C-28.68359375 39.38671875 -28.68359375 39.38671875 -28.12109375 36.38671875 C-24.84049059 33.10611559 -21.28169149 30.61556711 -16.61328125 30.12109375 C-15.74960937 30.12625 -14.8859375 30.13140625 -13.99609375 30.13671875 C-13.12726562 30.1315625 -12.2584375 30.12640625 -11.36328125 30.12109375 C-9.12109375 30.38671875 -9.12109375 30.38671875 -7.12109375 32.38671875 C-6.79109375 26.11671875 -6.46109375 19.84671875 -6.12109375 13.38671875 C-7.11109375 13.38671875 -8.10109375 13.38671875 -9.12109375 13.38671875 C-8.93546875 12.82984375 -8.74984375 12.27296875 -8.55859375 11.69921875 C-7.94611965 9.34525633 -7.94611965 9.34525633 -8.74609375 6.88671875 C-9.12109375 4.38671875 -9.12109375 4.38671875 -8.18359375 2.07421875 C-5.43484324 -0.17475894 -3.47874908 -0.18578955 0 0 Z " fill="#4162C4" transform="translate(76.12109375,32.61328125)"/>
<path d="M0 0 C0.125 5.75 0.125 5.75 -1 8 C-0.34 8 0.32 8 1 8 C0.5020163 11.73487777 0.12508244 13.81237635 -2 17 C-2 18.32 -2 19.64 -2 21 C-3.31337396 22.0260734 -4.64664105 23.02727325 -6 24 C-6 24.99 -6 25.98 -6 27 C-6.94875 27.45375 -7.8975 27.9075 -8.875 28.375 C-12.00313679 29.80238254 -12.00313679 29.80238254 -14 32 C-15.7634375 32.2475 -15.7634375 32.2475 -17.5625 32.5 C-19.2640625 32.7475 -19.2640625 32.7475 -21 33 C-21.495 33.99 -21.495 33.99 -22 35 C-24.31 35 -26.62 35 -29 35 C-29 35.33 -29 35.66 -29 36 C-30.89409978 36.22354607 -32.7904348 36.42819951 -34.6875 36.625 C-35.74324219 36.74101563 -36.79898438 36.85703125 -37.88671875 36.9765625 C-41.15648508 37.00117806 -43.05001502 36.30995837 -46 35 C-47.33568021 35.32380126 -48.66923011 35.65657551 -50 36 C-52 35.1875 -52 35.1875 -54 34 C-55.0828125 33.4740625 -55.0828125 33.4740625 -56.1875 32.9375 C-58 32 -58 32 -59 31 C-59.36328125 28.18359375 -59.36328125 28.18359375 -59 25 C-55.82015612 21.70944589 -51.8157486 19.50528948 -48 17 C-47.2059375 16.3296875 -46.411875 15.659375 -45.59375 14.96875 C-38.50857958 9.35582278 -31.69168023 9.23530833 -22.9675293 9.34985352 C-13.78902134 9.39450001 -6.64947583 0 0 0 Z " fill="#DBE1F3" transform="translate(140,25)"/>
<path d="M0 0 C0.49628906 0.39832031 0.99257812 0.79664062 1.50390625 1.20703125 C2.18324219 1.73683594 2.86257812 2.26664063 3.5625 2.8125 C4.22378906 3.33457031 4.88507812 3.85664063 5.56640625 4.39453125 C12.44864835 8.93482259 17.68720946 9.28360353 25.75 9.25 C35.11610023 9.45222349 40.72087329 10.85528265 48 17 C49.0209375 17.6703125 50.041875 18.340625 51.09375 19.03125 C56.94375 22.87215909 56.94375 22.87215909 59 25 C59.51905517 28.25136158 59.62586866 30.05616591 57.78515625 32.83203125 C55.59303568 34.26626331 54.04029227 34.49454176 51.4375 34.6875 C50.65246094 34.75324219 49.86742187 34.81898437 49.05859375 34.88671875 C47.70724678 34.9610813 46.35339145 35 45 35 C44.42507812 35.33644531 43.85015625 35.67289063 43.2578125 36.01953125 C40.26037059 37.32118855 38.10749206 37.017103 34.875 36.6875 C33.29332031 36.53861328 33.29332031 36.53861328 31.6796875 36.38671875 C29 36 29 36 27 35 C26.175 35.020625 25.35 35.04125 24.5 35.0625 C22 35 22 35 20 33 C17.74422472 32.42214485 15.48659704 32.04962025 13.19140625 31.66015625 C10.67245155 30.90132676 9.69283711 29.97330717 8 28 C7.443125 27.443125 6.88625 26.88625 6.3125 26.3125 C5.879375 25.879375 5.44625 25.44625 5 25 C5.33 24.67 5.66 24.34 6 24 C4.35 22.35 2.7 20.7 1 19 C1.33 18.34 1.66 17.68 2 17 C1.505 16.21625 1.01 15.4325 0.5 14.625 C-1 12 -1 12 -0.6875 9.8125 C-0.3471875 8.9153125 -0.3471875 8.9153125 0 8 C0 7.34 0 6.68 0 6 C0 4 0 2 0 0 Z " fill="#EAEEF8" transform="translate(8,25)"/>
<path d="M0 0 C-0.66 0.66 -1.32 1.32 -2 2 C2.70973649 3.76615118 7.03083364 4.48594831 12 5 C12 5.99 12 6.98 12 8 C12.99 8.33 13.98 8.66 15 9 C13.2421875 9.9765625 11.484375 10.953125 9.7265625 11.9296875 C7.8387386 13.00897274 7.8387386 13.00897274 6 15 C4.2365625 15.2475 4.2365625 15.2475 2.4375 15.5 C0.7359375 15.7475 0.7359375 15.7475 -1 16 C-1.33 16.66 -1.66 17.32 -2 18 C-4.31 18 -6.62 18 -9 18 C-9 18.33 -9 18.66 -9 19 C-12.375 19.1875 -12.375 19.1875 -16 19 C-18 16 -18 16 -18 13 C-19.98260426 11.31267723 -21.9832342 9.64633943 -24 8 C-25 5 -25 5 -24 2 C-16.39039138 -2.34834778 -8.38623166 -0.84472965 0 0 Z " fill="#EBEEF8" transform="translate(120,42)"/>
<path d="M0 0 C2.8125 2.3125 2.8125 2.3125 5 5 C5.07711903 8.16188003 4.42948919 9.47969842 2.4296875 11.90234375 C-0.74671172 14.64466912 -4.15416312 16.23421287 -7.9375 18 C-12.7598673 20.26310913 -16.95283372 22.45179943 -21 26 C-21.03872687 28.33538907 -21.03872687 28.33538907 -20 31 C-17.8282781 32.93157957 -15.47398953 34.48201687 -13 36 C-13.33 36.66 -13.66 37.32 -14 38 C-18.47832188 36.46457536 -22.80427026 34.39145948 -25 30 C-25.5 27.25 -25.5 27.25 -25 24 C-23.30220723 22.20033967 -21.52061135 20.76521314 -19.53125 19.296875 C-19.0259375 18.86890625 -18.520625 18.4409375 -18 18 C-18 17.34 -18 16.68 -18 16 C-17.01 15.34 -16.02 14.68 -15 14 C-17.97 12.35 -20.94 10.7 -24 9 C-23 5 -23 5 -20.1875 2.9375 C-14.37285863 -0.0904564 -5.92372639 -3.97042868 0 0 Z " fill="#788FD5" transform="translate(86,86)"/>
<path d="M0 0 C6.97462114 -0.78628297 11.65209862 -0.00748396 17.3203125 4.2890625 C19 6 19 6 20 9 C18.22066262 14.33801214 14.02019071 16.84311381 9.28515625 19.5546875 C4.76551954 21.54311269 0.19047714 22.41657653 -4.63476562 23.37304688 C-9.75009327 24.4714865 -13.65251982 26.04371348 -18 29 C-18.33 29.99 -18.66 30.98 -19 32 C-18.278125 32.268125 -17.55625 32.53625 -16.8125 32.8125 C-14.02409874 33.98982498 -11.55904276 35.39145884 -9 37 C-9.33 37.66 -9.66 38.32 -10 39 C-15.50165569 38.77544262 -18.68819909 37.48861959 -22.73046875 33.68359375 C-24 32 -24 32 -24.3125 28.875 C-22.15570549 24.15059298 -18.23951152 22.47855439 -13.51953125 20.65625 C-12.29621094 20.2746875 -11.07289062 19.893125 -9.8125 19.5 C-8.48926171 19.07652451 -7.1663472 18.65203601 -5.84375 18.2265625 C-5.19535156 18.02063477 -4.54695313 17.81470703 -3.87890625 17.60253906 C-1.17479212 16.73536733 1.5090309 15.81822434 4.1875 14.875 C5.44626953 14.43800781 5.44626953 14.43800781 6.73046875 13.9921875 C9.16001874 12.93004344 11.01739855 11.75927393 13 10 C13 9.34 13 8.68 13 8 C12.24074219 7.87882812 11.48148438 7.75765625 10.69921875 7.6328125 C9.70535156 7.46523437 8.71148437 7.29765625 7.6875 7.125 C6.70136719 6.96257812 5.71523437 6.80015625 4.69921875 6.6328125 C2 6 2 6 -1 4 C-0.67 2.68 -0.34 1.36 0 0 Z " fill="#F1F4FA" transform="translate(81,63)"/>
<path d="M0 0 C1.87890625 0.38671875 1.87890625 0.38671875 3.94140625 2.07421875 C5.11519387 4.96956155 4.62577201 6.3992557 3.87890625 9.38671875 C4.24747489 11.6183906 4.24747489 11.6183906 4.87890625 13.38671875 C3.88890625 13.71671875 2.89890625 14.04671875 1.87890625 14.38671875 C1.54890625 25.27671875 1.21890625 36.16671875 0.87890625 47.38671875 C-1.59609375 47.88171875 -1.59609375 47.88171875 -4.12109375 48.38671875 C-6.0720746 46.4357379 -5.37524483 42.73996946 -5.4375 40.0703125 C-5.4582811 39.33925797 -5.47906219 38.60820343 -5.50047302 37.85499573 C-5.56604399 35.51150219 -5.62488807 33.16789336 -5.68359375 30.82421875 C-5.72677183 29.2389202 -5.77038588 27.65363346 -5.81445312 26.06835938 C-5.92173295 22.17459838 -6.02297865 18.28072103 -6.12109375 14.38671875 C-7.11109375 14.05671875 -8.10109375 13.72671875 -9.12109375 13.38671875 C-8.93546875 12.82984375 -8.74984375 12.27296875 -8.55859375 11.69921875 C-7.94611965 9.34525633 -7.94611965 9.34525633 -8.74609375 6.88671875 C-9.12109375 4.38671875 -9.12109375 4.38671875 -8.18359375 2.07421875 C-5.43484324 -0.17475894 -3.47874908 -0.18578955 0 0 Z " fill="#F8F9FC" transform="translate(76.12109375,32.61328125)"/>
<path d="M0 0 C3.91020436 1.30340145 6.50108551 2.66811401 9 6 C9.64116685 9.76685522 9.3861333 11.3993482 7.3125 14.625 C5.01176352 16.98791855 2.63673637 19.02244772 0 21 C0.845625 21.886875 1.69125 22.77375 2.5625 23.6875 C4.38197684 25.90206324 4.97339744 26.63643162 5.1875 29.5625 C3.47531234 33.07699047 1.12598087 34.6721419 -2 37 C-0.68 38.32 0.64 39.64 2 41 C1.67 41.99 1.34 42.98 1 44 C0.01 43.01 -0.98 42.02 -2 41 C-2 43.97 -2 46.94 -2 50 C-2.99 50 -3.98 50 -5 50 C-5 46.7 -5 43.4 -5 40 C-6.65 41.32 -8.3 42.64 -10 44 C-9.38722388 41.03824877 -8.74627478 39.61941217 -7 37 C-7.44472656 36.55269531 -7.88945313 36.10539062 -8.34765625 35.64453125 C-8.91355469 35.03996094 -9.47945313 34.43539062 -10.0625 33.8125 C-10.63097656 33.22082031 -11.19945313 32.62914062 -11.78515625 32.01953125 C-13 30 -13 30 -12.94140625 27.48046875 C-11.7796115 24.4193083 -10.5185869 23.39979804 -7.875 21.5 C-6.66457031 20.60474609 -6.66457031 20.60474609 -5.4296875 19.69140625 C-3.93352029 18.64986219 -2.42069086 17.63125156 -0.8828125 16.65234375 C2.41202137 14.52642397 3.84575146 13.5450115 4.9375 9.6875 C4.958125 8.800625 4.97875 7.91375 5 7 C2.69 5.35 0.38 3.7 -2 2 C-1.34 1.34 -0.68 0.68 0 0 Z " fill="#A6B5E3" transform="translate(78,104)"/>
<path d="M0 0 C0.66 0.33 1.32 0.66 2 1 C-5.10991163 5.95317751 -11.72220112 6.60178409 -20.1340332 6.63452148 C-25.48361718 6.70098618 -29.32112425 7.28956346 -34 10 C-35.04289755 12.06890419 -35.04289755 12.06890419 -35 14 C-34.4946875 14.39832031 -33.989375 14.79664063 -33.46875 15.20703125 C-32.8190625 15.73683594 -32.169375 16.26664063 -31.5 16.8125 C-30.8503125 17.33457031 -30.200625 17.85664062 -29.53125 18.39453125 C-28 20 -28 20 -28 23 C-27.67 23.99 -27.34 24.98 -27 26 C-31.15977424 27.18850693 -33.07905406 26.60859321 -37 25 C-38.33568021 25.32380126 -39.66923011 25.65657551 -41 26 C-43 25.1875 -43 25.1875 -45 24 C-46.0828125 23.4740625 -46.0828125 23.4740625 -47.1875 22.9375 C-49 22 -49 22 -50 21 C-50.390625 18.19921875 -50.390625 18.19921875 -50 15 C-47.734375 12.76953125 -47.734375 12.76953125 -44.75 10.8125 C-43.28820312 9.83216797 -43.28820312 9.83216797 -41.796875 8.83203125 C-40.41242188 7.92517578 -40.41242188 7.92517578 -39 7 C-38.32453125 6.40574219 -37.6490625 5.81148437 -36.953125 5.19921875 C-34.27781325 3.55657734 -33.01506361 4.35077098 -30 5 C-26.57754522 5.12395566 -23.17077047 4.95403258 -19.75 4.8125 C-18.84636719 4.79380859 -17.94273438 4.77511719 -17.01171875 4.75585938 C-11.2251497 4.51856841 -6.92598511 3.44783873 -1.78613281 0.7487793 C-1.19670898 0.50168213 -0.60728516 0.25458496 0 0 Z " fill="#C7D0ED" transform="translate(131,35)"/>
<path d="M0 0 C2.31 0 4.62 0 7 0 C7.33 3.96 7.66 7.92 8 12 C8.680625 11.175 9.36125 10.35 10.0625 9.5 C13 7 13 7 16.8125 6.6875 C17.864375 6.790625 18.91625 6.89375 20 7 C19.54367187 7.51949219 19.08734375 8.03898437 18.6171875 8.57421875 C16.90133246 10.65555861 15.35754848 12.66780133 14 15 C14.58140835 19.16675987 17.34964914 21.81957897 20 25 C20 25.33 20 25.66 20 26 C14.64086809 26.43927311 14.64086809 26.43927311 12 26 C10.125 23.5625 10.125 23.5625 9 21 C8.34 20.67 7.68 20.34 7 20 C7 21.98 7 23.96 7 26 C4.69 26 2.38 26 0 26 C0 17.42 0 8.84 0 0 Z " fill="#F07229" transform="translate(295,86)"/>
<path d="M0 0 C1.98 0 3.96 0 6 0 C6.33 2.97 6.66 5.94 7 9 C7.66 8.34 8.32 7.68 9 7 C12.46878721 6.54754949 14.28450681 6.49479513 17.1796875 8.5390625 C19.65050532 11.87943852 19.44548591 14.77261366 19.25 18.75 C19.23195313 19.44738281 19.21390625 20.14476563 19.1953125 20.86328125 C19.14838554 22.57611539 19.07664605 24.28823824 19 26 C17.02 26 15.04 26 13 26 C12.67 21.71 12.34 17.42 12 13 C10.68 12.67 9.36 12.34 8 12 C6.64908472 14.70183055 6.66141942 17.11808206 6.4375 20.125 C6.35371094 21.22070312 6.26992188 22.31640625 6.18359375 23.4453125 C6.12300781 24.28835937 6.06242187 25.13140625 6 26 C4.02 26 2.04 26 0 26 C0 17.42 0 8.84 0 0 Z " fill="#F87323" transform="translate(261,86)"/>
<path d="M0 0 C3 1.1875 3 1.1875 5 3 C5.8125 5.6875 5.8125 5.6875 6 8 C3.125 8.125 3.125 8.125 0 8 C-0.66 7.34 -1.32 6.68 -2 6 C-4.5 5.58333333 -4.5 5.58333333 -7 6 C-9.79921583 10.19882375 -8.86558093 12.12127113 -8 17 C-6.94570314 18.26472065 -6.94570314 18.26472065 -4.5625 18.25 C-3.716875 18.1675 -2.87125 18.085 -2 18 C-1.34 17.01 -0.68 16.02 0 15 C3.125 14.8125 3.125 14.8125 6 15 C5.5047783 18.66464055 4.9791794 20.70832354 2 23 C-1.72900316 24.24300105 -5.13349214 24.6711674 -9 24 C-12.02391552 22.26092412 -14.41748661 20.16502678 -16 17 C-16.51512617 12.90842645 -16.94367269 8.76410454 -14.953125 5.04296875 C-10.48393082 -0.35949833 -6.64546723 -0.631262 0 0 Z " fill="#F37226" transform="translate(251,88)"/>
<path d="M0 0 C2.703125 1.54296875 2.703125 1.54296875 5 4 C5.37398847 6.81239326 5.48293015 8.97592155 5.3125 11.75 C5.28994141 12.44738281 5.26738281 13.14476563 5.24414062 13.86328125 C5.18547048 15.57644935 5.09579256 17.28850623 5 19 C2 19 -1 19 -4 19 C-4.99 19.061875 -5.98 19.12375 -7 19.1875 C-10 19 -10 19 -11.9375 17.875 C-13 16 -13 16 -12.875 12.9375 C-12 10 -12 10 -9 8 C-9.99 7.67 -10.98 7.34 -12 7 C-11.64393309 4.41851492 -11.16671807 3.17954253 -9.375 1.25 C-6.02036422 -0.51559778 -3.74177057 -0.45951568 0 0 Z " fill="#E06F34" transform="translate(375,93)"/>
<path d="M0 0 C2.703125 1.54296875 2.703125 1.54296875 5 4 C5.37398847 6.81239326 5.48293015 8.97592155 5.3125 11.75 C5.28994141 12.44738281 5.26738281 13.14476563 5.24414062 13.86328125 C5.18547048 15.57644935 5.09579256 17.28850623 5 19 C2 19 -1 19 -4 19 C-4.99 19.061875 -5.98 19.12375 -7 19.1875 C-10 19 -10 19 -11.9375 17.875 C-13 16 -13 16 -12.875 12.9375 C-12 10 -12 10 -9 8 C-9.99 7.67 -10.98 7.34 -12 7 C-11.64393309 4.41851492 -11.16671807 3.17954253 -9.375 1.25 C-6.02036422 -0.51559778 -3.74177057 -0.45951568 0 0 Z " fill="#E06F34" transform="translate(202,93)"/>
<path d="M0 0 C2.31 0 4.62 0 7 0 C7.67548578 2.05962852 8.34004312 4.12284322 9 6.1875 C9.37125 7.33605469 9.7425 8.48460938 10.125 9.66796875 C10.90630553 12.64320812 11.18363306 14.95283896 11 18 C11.66 18 12.32 18 13 18 C13.103125 16.88625 13.20625 15.7725 13.3125 14.625 C13.929197 9.56445698 15.42506148 4.83377357 17 0 C19.31 0 21.62 0 24 0 C21.69356492 8.13815304 18.89571216 16.05682118 16 24 C13.36 24 10.72 24 8 24 C6.65853506 20.56561785 5.32824095 17.12701583 4 13.6875 C3.6184375 12.71103516 3.236875 11.73457031 2.84375 10.72851562 C2.4828125 9.79072266 2.121875 8.85292969 1.75 7.88671875 C1.41484375 7.02264404 1.0796875 6.15856934 0.734375 5.26831055 C0 3 0 3 0 0 Z " fill="#F37227" transform="translate(99,88)"/>
<path d="M0 0 C1.98 0 3.96 0 6 0 C6.33 4.62 6.66 9.24 7 14 C8.32 14 9.64 14 11 14 C11.33 9.38 11.66 4.76 12 0 C14.31 0 16.62 0 19 0 C19 6.27 19 12.54 19 19 C15.66666667 19 12.33333333 19 9 19 C8.01 19.061875 7.02 19.12375 6 19.1875 C3 19 3 19 1.32421875 18 C-0.77224479 14.83365979 -0.31214038 11.47181381 -0.1875 7.8125 C-0.17396484 7.06291016 -0.16042969 6.31332031 -0.14648438 5.54101562 C-0.11118539 3.69370233 -0.05737917 1.84675934 0 0 Z " fill="#EC712C" transform="translate(167,93)"/>
<path d="M0 0 C0.76699219 0.49371094 1.53398437 0.98742188 2.32421875 1.49609375 C10.84253773 6.41317219 17.68187814 7.79976642 27.5378418 7.56030273 C34.02758442 7.50686141 37.86888427 9.02271134 43 13 C40.02786312 13 38.48167913 12.53154317 35.75 11.5 C30.11865235 9.5619388 24.76392282 9.30472858 19 11 C18.67 11.66 18.34 12.32 18 13 C13.20867943 14.72487541 9.07283639 15.20705455 4 15 C4 15.66 4 16.32 4 17 C-0.63714903 15.53563715 -0.63714903 15.53563715 -2.3125 13.0625 C-3 11 -3 11 -3 8 C-3.66 7.01 -4.32 6.02 -5 5 C-4.625 2.8125 -4.625 2.8125 -4 1 C-2.02 1.495 -2.02 1.495 0 2 C0 1.34 0 0.68 0 0 Z " fill="#BDC8EA" transform="translate(12,32)"/>
<path d="M0 0 C0.66 0.33 1.32 0.66 2 1 C0.68 1.99 -0.64 2.98 -2 4 C0.31 5.65 2.62 7.3 5 9 C5.0625 11.5625 5.0625 11.5625 4 15 C1.20839296 17.63885873 -1.83108029 19.83617199 -5 22 C-9.07386146 19.96306927 -12.75371579 16.99339415 -15 13 C-14.72956461 10.37518595 -14.26559168 9.25925298 -12.36328125 7.40234375 C-8.39497244 4.56783746 -4.5489639 1.84124729 0 0 Z " fill="#3F60C3" transform="translate(79,102)"/>
<path d="M0 0 C2.9375 1.3125 2.9375 1.3125 5 3 C5 3.99 5 4.98 5 6 C-0.625 6.25 -0.625 6.25 -4 4 C-1.62671491 6.74801432 0.6481365 7.71082173 4 9 C4.66 9.66 5.32 10.32 6 11 C5.875 14 5.875 14 5 17 C2.14559195 19.51187909 -1.44401703 19.35314135 -5.09375 19.2578125 C-7.7816168 18.89428953 -9.20844583 18.01549844 -11 16 C-11 15.01 -11 14.02 -11 13 C-7.05272412 12.82057837 -4.4019487 12.90649311 -1 15 C-2.60838293 11.78323414 -5.78593279 11.35329146 -9 10 C-9.66 9.34 -10.32 8.68 -11 8 C-10.8125 5 -10.8125 5 -10 2 C-6.27420911 -0.48386059 -4.41288598 -0.3804212 0 0 Z " fill="#F07229" transform="translate(354,93)"/>
<path d="M0 0 C2.9375 2.1875 2.9375 2.1875 5 5 C5.07711903 8.16188003 4.42948919 9.47969842 2.4296875 11.90234375 C-0.74671172 14.64466912 -4.15416312 16.23421287 -7.9375 18 C-12.7598673 20.26310913 -16.95283372 22.45179943 -21 26 C-21.03872687 28.33538907 -21.03872687 28.33538907 -20 31 C-17.8282781 32.93157957 -15.47398953 34.48201687 -13 36 C-13.33 36.66 -13.66 37.32 -14 38 C-18.47832188 36.46457536 -22.80427026 34.39145948 -25 30 C-25.5 27.25 -25.5 27.25 -25 24 C-20.20815883 18.60917869 -13.84683145 15.5316731 -7.51171875 12.24682617 C-6.83109375 11.88435791 -6.15046875 11.52188965 -5.44921875 11.1484375 C-4.83393311 10.83052246 -4.21864746 10.51260742 -3.5847168 10.18505859 C-1.55057862 8.84860918 -1.55057862 8.84860918 0 5 C-2.97 4.01 -5.94 3.02 -9 2 C-5.48175489 -0.34549674 -4.14224306 -0.57991403 0 0 Z " fill="#EBEFF9" transform="translate(86,86)"/>
<path d="M0 0 C0.89203125 0.01804688 1.7840625 0.03609375 2.703125 0.0546875 C3.71632813 0.08949219 3.71632813 0.08949219 4.75 0.125 C5.08 1.445 5.41 2.765 5.75 4.125 C2.46508627 6.31494248 0.91904361 6.47777339 -2.9375 6.75 C-4.42830078 6.86214844 -4.42830078 6.86214844 -5.94921875 6.9765625 C-6.70847656 7.02554688 -7.46773437 7.07453125 -8.25 7.125 C-8.10586959 9.05351693 -8.10586959 9.05351693 -7.25 11.125 C-5.15876689 12.63355332 -5.15876689 12.63355332 -2.5625 13.75 C-1.66402344 14.16894531 -0.76554687 14.58789062 0.16015625 15.01953125 C2.98103212 16.22361552 5.80301109 17.27192426 8.75 18.125 C6.34031847 20.53468153 4.38809311 20.93566138 1.04296875 21.2890625 C-4.34351093 20.9036585 -8.63734038 17.344328 -12.8125 14.1875 C-14.25 12.125 -14.25 12.125 -14.8125 9.125 C-14.25 6.125 -14.25 6.125 -12 3.875 C-7.73002246 1.15774157 -5.13875476 -0.13523039 0 0 Z " fill="#F1F3FA" transform="translate(62.25,62.875)"/>
<path d="M0 0 C2.31 0 4.62 0 7 0 C7 6.93 7 13.86 7 21 C7.66 21 8.32 21 9 21 C9 22.65 9 24.3 9 26 C5.625 26.125 5.625 26.125 2 26 C0 24 0 24 -0.22705078 21.56982422 C-0.21657715 20.5748291 -0.20610352 19.57983398 -0.1953125 18.5546875 C-0.18886719 17.47832031 -0.18242187 16.40195313 -0.17578125 15.29296875 C-0.15902344 14.16503906 -0.14226562 13.03710938 -0.125 11.875 C-0.11597656 10.73933594 -0.10695312 9.60367188 -0.09765625 8.43359375 C-0.07403098 5.62218701 -0.04109013 2.81119702 0 0 Z " fill="#E9702E" transform="translate(211,86)"/>
<path d="M0 0 C1.98 0 3.96 0 6 0 C6 1.65 6 3.3 6 5 C7.32 5 8.64 5 10 5 C10 6.32 10 7.64 10 9 C8.68 9 7.36 9 6 9 C6.33 11.97 6.66 14.94 7 18 C7.99 18.33 8.98 18.66 10 19 C10 20.32 10 21.64 10 23 C3.9453125 23.1953125 3.9453125 23.1953125 2 23 C0 21 0 21 -0.1953125 18.1796875 C-0.17210937 17.08914062 -0.14890625 15.99859375 -0.125 14.875 C-0.10695313 13.77929688 -0.08890625 12.68359375 -0.0703125 11.5546875 C-0.04710937 10.71164063 -0.02390625 9.86859375 0 9 C-0.99 9 -1.98 9 -3 9 C-3 7.68 -3 6.36 -3 5 C-2.01 5 -1.02 5 0 5 C0 3.35 0 1.7 0 0 Z " fill="#F67324" transform="translate(330,89)"/>
<path d="M0 0 C1.98 0 3.96 0 6 0 C6 1.65 6 3.3 6 5 C7.32 5 8.64 5 10 5 C10 6.32 10 7.64 10 9 C8.68 9 7.36 9 6 9 C6.33 11.97 6.66 14.94 7 18 C7.99 18.33 8.98 18.66 10 19 C10 20.32 10 21.64 10 23 C3.9453125 23.1953125 3.9453125 23.1953125 2 23 C0 21 0 21 -0.1953125 18.1796875 C-0.17210937 17.08914062 -0.14890625 15.99859375 -0.125 14.875 C-0.10695312 13.77929688 -0.08890625 12.68359375 -0.0703125 11.5546875 C-0.04710937 10.71164063 -0.02390625 9.86859375 0 9 C-0.99 9 -1.98 9 -3 9 C-3 7.68 -3 6.36 -3 5 C-2.01 5 -1.02 5 0 5 C0 3.35 0 1.7 0 0 Z " fill="#F67324" transform="translate(154,89)"/>
<path d="M0 0 C0.66 0.33 1.32 0.66 2 1 C-0.69705214 6.24821353 -3.51525029 7.77321667 -8.82666016 10.00927734 C-14.24181612 11.6998992 -19.55117956 11.78278302 -25.1875 11.8125 C-26.90163086 11.85020508 -26.90163086 11.85020508 -28.65039062 11.88867188 C-31.43394129 11.94690515 -34.21594261 11.98365148 -37 12 C-36.03518527 9.58796316 -35.3578024 8.24273269 -33.18261719 6.76708984 C-30.69482464 5.89274486 -28.71312307 5.74504846 -26.078125 5.7265625 C-24.66273437 5.695625 -24.66273437 5.695625 -23.21875 5.6640625 C-21.25529368 5.63822755 -19.29172321 5.61987553 -17.328125 5.609375 C-10.95621993 5.45354037 -4.78149738 4.78149738 0 0 Z " fill="#E5EAF7" transform="translate(134,29)"/>
<path d="M0 0 C4 0 8 0 12 0 C12 1.65 12 3.3 12 5 C10.35 5.66 8.7 6.32 7 7 C6.67 10.96 6.34 14.92 6 19 C4.02 19 2.04 19 0 19 C0 12.73 0 6.46 0 0 Z " fill="#FA7422" transform="translate(137,93)"/>
<path d="M0 0 C3.91020436 1.30340145 6.50108551 2.66811401 9 6 C9.6314311 9.70965773 9.45171116 11.33972615 7.31640625 14.4609375 C4.87206087 17.14023682 2.53242081 18.81370441 -0.5625 20.6875 C-1.51253906 21.26886719 -2.46257812 21.85023437 -3.44140625 22.44921875 C-4.28574219 22.96097656 -5.13007812 23.47273438 -6 24 C-6.99 24.66 -7.98 25.32 -9 26 C-9.58488562 28.37124598 -9.58488562 28.37124598 -9 31 C-7.10183458 33.7905817 -7.10183458 33.7905817 -5 36 C-8.05957468 35.67218843 -9.05836134 34.94321599 -11.3125 32.75 C-13 30 -13 30 -12.86328125 27.546875 C-11.79066938 24.3824273 -10.56786206 23.43520935 -7.875 21.5 C-6.66457031 20.60474609 -6.66457031 20.60474609 -5.4296875 19.69140625 C-3.93352029 18.64986219 -2.42069086 17.63125156 -0.8828125 16.65234375 C2.41202137 14.52642397 3.84575146 13.5450115 4.9375 9.6875 C4.958125 8.800625 4.97875 7.91375 5 7 C2.69 5.35 0.38 3.7 -2 2 C-1.34 1.34 -0.68 0.68 0 0 Z " fill="#E6EAF7" transform="translate(78,104)"/>
<path d="M0 0 C2.31 0 4.62 0 7 0 C7 6.27 7 12.54 7 19 C4.69 19 2.38 19 0 19 C0 12.73 0 6.46 0 0 Z " fill="#E9702E" transform="translate(284,93)"/>
<path d="M0 0 C1.98 0 3.96 0 6 0 C6.33 4.62 6.66 9.24 7 14 C8.98 14.66 10.96 15.32 13 16 C12.67 16.99 12.34 17.98 12 19 C11.01 19 10.02 19 9 19 C8.01 19.061875 7.02 19.12375 6 19.1875 C3 19 3 19 1.32421875 18 C-0.77224479 14.83365979 -0.31214038 11.47181381 -0.1875 7.8125 C-0.17396484 7.06291016 -0.16042969 6.31332031 -0.14648438 5.54101562 C-0.11118539 3.69370233 -0.05737917 1.84675934 0 0 Z " fill="#F87323" transform="translate(167,93)"/>
<path d="M0 0 C1.98 0 3.96 0 6 0 C6 6.27 6 12.54 6 19 C4.02 19 2.04 19 0 19 C0 12.73 0 6.46 0 0 Z " fill="#F87323" transform="translate(318,93)"/>
<path d="M0 0 C1.98 0 3.96 0 6 0 C6 6.27 6 12.54 6 19 C4.02 19 2.04 19 0 19 C0 12.73 0 6.46 0 0 Z " fill="#FA7422" transform="translate(126,93)"/>
<path d="M0 0 C0.66 0.33 1.32 0.66 2 1 C1.67 1.99 1.34 2.98 1 4 C1.763125 4.268125 2.52625 4.53625 3.3125 4.8125 C5.92443202 5.9666095 7.32864222 6.71287883 9 9 C9 10.32 9 11.64 9 13 C6.57447091 13.86626039 5.42863035 14.17413108 3 13.1875 C2.01 12.5996875 2.01 12.5996875 1 12 C0.278125 11.649375 -0.44375 11.29875 -1.1875 10.9375 C-3 10 -3 10 -4 9 C-4.3125 6.125 -4.3125 6.125 -4 3 C-2 1.125 -2 1.125 0 0 Z " fill="#E6EAF7" transform="translate(85,47)"/>
<path d="M0 0 C2.67611698 0.36911958 3.8431469 0.84855563 5.8125 2.75 C7 5 7 5 7.0625 7.4375 C5.52553882 11.14428873 3.2010714 12.61622343 0 15 C1.32 16.32 2.64 17.64 4 19 C3.67 19.99 3.34 20.98 3 22 C2.01 21.01 1.02 20.02 0 19 C0 21.97 0 24.94 0 28 C-0.99 28 -1.98 28 -3 28 C-5.04753199 18.63985375 -5.04753199 18.63985375 -2.5078125 14.6640625 C-0.5625 12.625 -0.5625 12.625 1.43359375 10.8515625 C3.22055483 9.06416439 3.22055483 9.06416439 3.41015625 6.3984375 C3.27480469 5.60695312 3.13945313 4.81546875 3 4 C2.01 3.34 1.02 2.68 0 2 C0 1.34 0 0.68 0 0 Z " fill="#A7B6E3" transform="translate(76,126)"/>
<path d="M0 0 C1.98 0 3.96 0 6 0 C6 3.3 6 6.6 6 10 C-1.71484375 10.09765625 -1.71484375 10.09765625 -4 10 C-5 9 -5 9 -5.0625 6.4375 C-5.041875 5.633125 -5.02125 4.82875 -5 4 C-3.35 3.67 -1.7 3.34 0 3 C0 2.01 0 1.02 0 0 Z " fill="#02B56A" transform="translate(167,118)"/>
<path d="M0 0 C1.32 0 2.64 0 4 0 C4.33 1.32 4.66 2.64 5 4 C5.66 2.68 6.32 1.36 7 0 C7.99 0 8.98 0 10 0 C10 3.3 10 6.6 10 10 C6.7 10 3.4 10 0 10 C0 6.7 0 3.4 0 0 Z " fill="#08A278" transform="translate(142,118)"/>
<path d="M0 0 C0 4.62 0 9.24 0 14 C-6.11940299 11.55223881 -6.11940299 11.55223881 -8 8 C-8 6 -8 6 -7 4 C-2.66666667 0 -2.66666667 0 0 0 Z " fill="#2D52BE" transform="translate(72,107)"/>
<path d="M0 0 C0 3.63 0 7.26 0 11 C-3.40312738 9.94124926 -6.01353231 8.99097846 -9 7 C-8.8125 5.1875 -8.8125 5.1875 -8 3 C-5.09303401 0.85802506 -3.64478912 0 0 0 Z " fill="#2E52BE" transform="translate(71,88)"/>
<path d="M0 0 C3.91020436 1.30340145 6.50108551 2.66811401 9 6 C9.65739689 9.86220672 9.32753291 11.47360782 7.25 14.8125 C5.03461538 16.96634616 4.01326538 17.67715014 1 18 C2.04166667 16.30729167 3.08333333 14.61458333 4.125 12.921875 C5.27624023 10.74520615 5.27624023 10.74520615 5 7 C3.48765634 5.4363243 3.48765634 5.4363243 1.5 4.25 C0.8503125 3.82203125 0.200625 3.3940625 -0.46875 2.953125 C-0.9740625 2.63859375 -1.479375 2.3240625 -2 2 C-1.34 1.34 -0.68 0.68 0 0 Z " fill="#EEF1F9" transform="translate(78,104)"/>
<path d="M0 0 C1.64574566 -0.02688151 3.29161413 -0.04634123 4.9375 -0.0625 C5.85402344 -0.07410156 6.77054687 -0.08570312 7.71484375 -0.09765625 C10 0 10 0 11 1 C11.04080783 2.99958364 11.04254356 5.00045254 11 7 C10.01 7 9.02 7 8 7 C8 5.35 8 3.7 8 2 C7.34 2 6.68 2 6 2 C6 3.65 6 5.3 6 7 C4.02 7 2.04 7 0 7 C0 4.69 0 2.38 0 0 Z " fill="#05AC71" transform="translate(119,121)"/>
<path d="M0 0 C2.89696854 0.36982577 5.37621929 0.68810965 8 2 C7.875 3.75 7.875 3.75 7 6 C1.77777778 10 1.77777778 10 -1 10 C-1.02689216 8.52093108 -1.04634621 7.04172517 -1.0625 5.5625 C-1.07410156 4.73878906 -1.08570312 3.91507812 -1.09765625 3.06640625 C-1 1 -1 1 0 0 Z " fill="#2A4FBC" transform="translate(78,89)"/>
<path d="M0 0 C1.32 0 2.64 0 4 0 C4 4.62 4 9.24 4 14 C2.68 14 1.36 14 0 14 C0 9.38 0 4.76 0 0 Z " fill="#EEF1F9" transform="translate(72,107)"/>
<path d="M0 0 C0.66 0 1.32 0 2 0 C2 0.66 2 1.32 2 2 C3.65 2 5.3 2 7 2 C7 4.31 7 6.62 7 9 C4.69 9 2.38 9 0 9 C-1.125 2.25 -1.125 2.25 0 0 Z " fill="#0E8E87" transform="translate(254,119)"/>
<path d="M0 0 C2.67611698 0.36911958 3.8431469 0.84855563 5.8125 2.75 C7 5 7 5 7.125 7.375 C5.43353338 11.32175546 2.36476371 13.4434824 -1 16 C-1.66 15.67 -2.32 15.34 -3 15 C-2.566875 14.62488281 -2.13375 14.24976563 -1.6875 13.86328125 C1.90994924 10.64906138 1.90994924 10.64906138 3.5625 6.25 C3.17587591 3.63143136 3.17587591 3.63143136 0 2 C0 1.34 0 0.68 0 0 Z " fill="#D5DCF2" transform="translate(76,126)"/>
<path d="M0 0 C1.32 0 2.64 0 4 0 C4 3.63 4 7.26 4 11 C2.68 11 1.36 11 0 11 C0 7.37 0 3.74 0 0 Z " fill="#F7F9FC" transform="translate(72,88)"/>
<path d="M0 0 C2.5 0.125 2.5 0.125 3.5 1.125 C3.625 3.625 3.625 3.625 3.5 6.125 C2.5 7.125 2.5 7.125 0 7.25 C-2.5 7.125 -2.5 7.125 -3.5 6.125 C-3.625 3.625 -3.625 3.625 -3.5 1.125 C-2.5 0.125 -2.5 0.125 0 0 Z " fill="#0A9C7C" transform="translate(101.5,120.875)"/>
<path d="M0 0 C2.625 0.375 2.625 0.375 5 1 C5.625 2.875 5.625 2.875 6 5 C5.34 5.66 4.68 6.32 4 7 C1.375 6.625 1.375 6.625 -1 6 C-1.625 4.125 -1.625 4.125 -2 2 C-1.34 1.34 -0.68 0.68 0 0 Z " fill="#0A9D7C" transform="translate(264,121)"/>
<path d="M0 0 C1.2065625 0.0309375 1.2065625 0.0309375 2.4375 0.0625 C3.37173645 3.07281744 3.48199911 3.92900268 2.4375 7.0625 C0.77138095 7.105221 -0.89632885 7.10313832 -2.5625 7.0625 C-3.5625 6.0625 -3.5625 6.0625 -3.6875 3.5625 C-3.51717518 0.15600356 -3.41884482 0.08338646 0 0 Z " fill="#06AB71" transform="translate(134.5625,120.9375)"/>
<path d="M0 0 C1.99954746 -0.04254356 4.00041636 -0.04080783 6 0 C7 1 7 1 7.0625 4.0625 C7.041875 5.031875 7.02125 6.00125 7 7 C6.01 7 5.02 7 4 7 C4 5.35 4 3.7 4 2 C3.34 2 2.68 2 2 2 C2 3.65 2 5.3 2 7 C1.34 7 0.68 7 0 7 C0 4.69 0 2.38 0 0 Z " fill="#05AC71" transform="translate(213,121)"/>
<path d="M0 0 C1.99954746 -0.04254356 4.00041636 -0.04080783 6 0 C7 1 7 1 7.0625 4.0625 C7.041875 5.031875 7.02125 6.00125 7 7 C6.01 7 5.02 7 4 7 C4 5.35 4 3.7 4 2 C3.34 2 2.68 2 2 2 C2 3.65 2 5.3 2 7 C1.34 7 0.68 7 0 7 C0 4.69 0 2.38 0 0 Z " fill="#06AA72" transform="translate(107,121)"/>
<path d="M0 0 C1.32 0 2.64 0 4 0 C4 3.3 4 6.6 4 10 C2.68 10 1.36 10 0 10 C0 6.7 0 3.4 0 0 Z " fill="#0D9384" transform="translate(169,118)"/>
<path d="M0 0 C1.67542976 0.28604898 3.34385343 0.61781233 5 1 C5 5 5 5 4 7 C2.35 6.67 0.7 6.34 -1 6 C-1.042721 4.33388095 -1.04063832 2.66617115 -1 1 C-0.67 0.67 -0.34 0.34 0 0 Z " fill="#05AE6F" transform="translate(155,121)"/>
<path d="M0 0 C2.00720923 0.28674418 4.0085944 0.61866701 6 1 C6 2.32 6 3.64 6 5 C4.02 5.33 2.04 5.66 0 6 C-0.38218767 4.34385343 -0.71395102 2.67542976 -1 1 C-0.67 0.67 -0.34 0.34 0 0 Z " fill="#E36F32" transform="translate(285,86)"/>
<path d="M0 0 C1.65 0.33 3.3 0.66 5 1 C5 2.98 5 4.96 5 7 C3.02 7 1.04 7 -1 7 C-0.7525 6.1028125 -0.7525 6.1028125 -0.5 5.1875 C0.1114124 2.88655664 0.1114124 2.88655664 0 0 Z " fill="#05AE6F" transform="translate(247,121)"/>
<path d="M0 0 C1.65 0.33 3.3 0.66 5 1 C5 2.98 5 4.96 5 7 C3.35 7 1.7 7 0 7 C-1.125 2.25 -1.125 2.25 0 0 Z " fill="#05AE6F" transform="translate(183,121)"/>
<path d="M0 0 C1.67542976 0.28604898 3.34385343 0.61781233 5 1 C5 2.32 5 3.64 5 5 C3.35 5.33 1.7 5.66 0 6 C-0.38218767 4.34385343 -0.71395102 2.67542976 -1 1 C-0.67 0.67 -0.34 0.34 0 0 Z " fill="#EB712C" transform="translate(319,86)"/>
<path d="M0 0 C1.99954746 -0.04254356 4.00041636 -0.04080783 6 0 C7 1 7 1 7.0625 4.0625 C7.041875 5.031875 7.02125 6.00125 7 7 C6.34 7 5.68 7 5 7 C5 5.35 5 3.7 5 2 C4.01 2 3.02 2 2 2 C2 3.65 2 5.3 2 7 C1.34 7 0.68 7 0 7 C0 4.69 0 2.38 0 0 Z " fill="#03B26C" transform="translate(271,121)"/>
<path d="M0 0 C2.625 0.375 2.625 0.375 5 1 C5 1.66 5 2.32 5 3 C3.68 2.67 2.36 2.34 1 2 C1 2.99 1 3.98 1 5 C2.32 4.67 3.64 4.34 5 4 C4.67 4.99 4.34 5.98 4 7 C2.35 6.67 0.7 6.34 -1 6 C-1.625 4.125 -1.625 4.125 -2 2 C-1.34 1.34 -0.68 0.68 0 0 Z " fill="#06A973" transform="translate(198,121)"/>
<path d="M0 0 C2.625 0.375 2.625 0.375 5 1 C5 1.66 5 2.32 5 3 C3.68 2.67 2.36 2.34 1 2 C1 2.99 1 3.98 1 5 C2.32 4.67 3.64 4.34 5 4 C4.67 4.99 4.34 5.98 4 7 C2.35 6.67 0.7 6.34 -1 6 C-1.625 4.125 -1.625 4.125 -2 2 C-1.34 1.34 -0.68 0.68 0 0 Z " fill="#06A973" transform="translate(176,121)"/>
<path d="M0 0 C0.66 0 1.32 0 2 0 C2 1.65 2 3.3 2 5 C2.99 5 3.98 5 5 5 C5 3.35 5 1.7 5 0 C5.66 0 6.32 0 7 0 C7 2.31 7 4.62 7 7 C5.00045254 7.04254356 2.99958364 7.04080783 1 7 C0 6 0 6 -0.0625 2.9375 C-0.041875 1.968125 -0.02125 0.99875 0 0 Z " fill="#03B36B" transform="translate(228,121)"/>
<path d="M0 0 C1.65 0.33 3.3 0.66 5 1 C4.67 2.65 4.34 4.3 4 6 C2.35 5.67 0.7 5.34 -1 5 C-0.67 3.35 -0.34 1.7 0 0 Z " fill="#F27228" transform="translate(127,86)"/>
<path d="M0 0 C1.98 0.99 1.98 0.99 4 2 C4.25 4.3125 4.25 4.3125 4 7 C2.68 7.99 1.36 8.98 0 10 C0 6.7 0 3.4 0 0 Z " fill="#2D51BD" transform="translate(76,128)"/>
<path d="M0 0 C0 3.3 0 6.6 0 10 C-4 7 -4 7 -4.4375 4.4375 C-4.293125 3.633125 -4.14875 2.82875 -4 2 C-1 0 -1 0 0 0 Z " fill="#2D52BE" transform="translate(72,128)"/>
<path d="M0 0 C1.65 0.33 3.3 0.66 5 1 C5 4 5 4 4 7 C2.35 6.67 0.7 6.34 -1 6 C-1 3 -1 3 0 0 Z " fill="#04B06E" transform="translate(222,121)"/>
<path d="M0 0 C2.625 0.375 2.625 0.375 5 1 C5.33 2.32 5.66 3.64 6 5 C5.34 5 4.68 5 4 5 C4 4.01 4 3.02 4 2 C3.01 2 2.02 2 1 2 C1 3.32 1 4.64 1 6 C1.66 6.33 2.32 6.66 3 7 C1.68 6.67 0.36 6.34 -1 6 C-1.625 4.125 -1.625 4.125 -2 2 C-1.34 1.34 -0.68 0.68 0 0 Z " fill="#05AC71" transform="translate(206,121)"/>
<path d="M0 0 C1.32 0 2.64 0 4 0 C4.17942163 3.94727588 4.09350689 6.5980513 2 10 C1.34 10 0.68 10 0 10 C0 6.7 0 3.4 0 0 Z " fill="#02B56A" transform="translate(142,118)"/>
<path d="M0 0 C0.66 0 1.32 0 2 0 C2 0.66 2 1.32 2 2 C2.66 2 3.32 2 4 2 C4 4.31 4 6.62 4 9 C2.68 9 1.36 9 0 9 C-1.125 2.25 -1.125 2.25 0 0 Z " fill="#06A873" transform="translate(241,119)"/>
<path d="M0 0 C1.32 0 2.64 0 4 0 C4 2.31 4 4.62 4 7 C2.68 7 1.36 7 0 7 C0 4.69 0 2.38 0 0 Z " fill="#0D9383" transform="translate(119,121)"/>
<path d="M0 0 C2.97 0 5.94 0 9 0 C9 0.99 9 1.98 9 3 C6.03 3 3.06 3 0 3 C0 2.01 0 1.02 0 0 Z " fill="#F67325" transform="translate(222,101)"/>
<path d="M0 0 C3.78449552 1.26149851 4.13176857 2.58844695 6 6 C6.99 7.485 6.99 7.485 8 9 C4.86493389 8.66410006 3.974751 7.97334828 1.75 5.625 C0 3 0 3 0 0 Z " fill="#CED6EF" transform="translate(65,131)"/>
<path d="M0 0 C0.66 0 1.32 0 2 0 C2 0.66 2 1.32 2 2 C2.66 2.33 3.32 2.66 4 3 C3.34 3 2.68 3 2 3 C2.66 4.98 3.32 6.96 4 9 C2.68 9 1.36 9 0 9 C-1.125 2.25 -1.125 2.25 0 0 Z " fill="#03B16D" transform="translate(254,119)"/>
<path d="M0 0 C0.33 0 0.66 0 1 0 C1 2.31 1 4.62 1 7 C-1.97 6.505 -1.97 6.505 -5 6 C-5 4.68 -5 3.36 -5 2 C-4.01 2 -3.02 2 -2 2 C-2 2.99 -2 3.98 -2 5 C-1.34 5 -0.68 5 0 5 C-0.2784375 4.0409375 -0.2784375 4.0409375 -0.5625 3.0625 C-0.706875 2.381875 -0.85125 1.70125 -1 1 C-0.67 0.67 -0.34 0.34 0 0 Z " fill="#17759A" transform="translate(212,121)"/>
<path d="M0 0 C2 1 2 1 3 3 C1.35 4.65 -0.3 6.3 -2 8 C-2.66 7.67 -3.32 7.34 -4 7 C-3.34 6.34 -2.68 5.68 -2 5 C-2.66 4.34 -3.32 3.68 -4 3 C-2.68 2.01 -1.36 1.02 0 0 Z " fill="#BDC8EA" transform="translate(96,39)"/>
<path d="M0 0 C0.98120464 3.05263664 0.98120464 4.94736336 0 8 C-0.99 8 -1.98 8 -3 8 C-3.33 6.35 -3.66 4.7 -4 3 C-2.68 3 -1.36 3 0 3 C0 2.01 0 1.02 0 0 Z " fill="#12838F" transform="translate(167,118)"/>
<path d="M0 0 C0 3 0 3 -2.3125 5.6875 C-5 8 -5 8 -8 8 C-5.36 5.36 -2.72 2.72 0 0 Z " fill="#5975CB" transform="translate(51,49)"/>
<path d="M0 0 C0.66 0.33 1.32 0.66 2 1 C0.90716423 2.03295436 -0.19970579 3.05107835 -1.3125 4.0625 C-1.92738281 4.63097656 -2.54226562 5.19945312 -3.17578125 5.78515625 C-3.77777344 6.18605469 -4.37976562 6.58695313 -5 7 C-5.99 6.67 -6.98 6.34 -8 6 C-5.36 4.02 -2.72 2.04 0 0 Z " fill="#4F6DC8" transform="translate(43,48)"/>
<path d="M0 0 C4.43458973 1.3937282 6.87378374 3.60582235 10 7 C5.61308455 6.49381745 3.15608721 3.86917019 0 1 C0 0.67 0 0.34 0 0 Z " fill="#4F6EC8" transform="translate(103,48)"/>
<path d="M0 0 C0.99 0 1.98 0 3 0 C3 3.3 3 6.6 3 10 C2.67 10 2.34 10 2 10 C2 8.02 2 6.04 2 4 C1.34 4 0.68 4 0 4 C0 2.68 0 1.36 0 0 Z " fill="#00BD64" transform="translate(149,118)"/>
<path d="M0 0 C1.14926266 0.95421808 2.29430541 1.91352045 3.4375 2.875 C4.07558594 3.40867188 4.71367188 3.94234375 5.37109375 4.4921875 C7 6 7 6 8 8 C4.11137013 6.73882275 2.10624401 5.54735833 0 2 C0 1.34 0 0.68 0 0 Z " fill="#5270C9" transform="translate(96,49)"/>
<path d="M0 0 C0 0.66 0 1.32 0 2 C-3.3 1.34 -6.6 0.68 -10 0 C-10 -0.33 -10 -0.66 -10 -1 C-5.94568308 -2.15837626 -3.78187881 -1.83691257 0 0 Z " fill="#354DAE" transform="translate(353,106)"/>
</svg>
