<svg xmlns="http://www.w3.org/2000/svg" xmlns:xlink="http://www.w3.org/1999/xlink" width="2000" zoomAndPan="magnify" viewBox="0 0 1500 1499.999933" height="2000" preserveAspectRatio="xMidYMid meet" version="1.0"><defs><clipPath id="2e3ac0790e"><path d="M 0 0 L 1485.75 0 L 1485.75 1485.75 L 0 1485.75 Z M 0 0 " clip-rule="nonzero"/></clipPath><clipPath id="e1dc1d2cfe"><path d="M 792 325.65625 L 1221 325.65625 L 1221 592 L 792 592 Z M 792 325.65625 " clip-rule="nonzero"/></clipPath><clipPath id="5d0c1fc40a"><path d="M 265 325.65625 L 694 325.65625 L 694 592 L 265 592 Z M 265 325.65625 " clip-rule="nonzero"/></clipPath></defs><g clip-path="url(#2e3ac0790e)"><path fill="#ffffff" d="M 1485.75 742.875 C 1485.75 755.03125 1485.453125 767.183594 1484.855469 779.324219 C 1484.257812 791.46875 1483.363281 803.589844 1482.171875 815.6875 C 1480.980469 827.789062 1479.492188 839.851562 1477.710938 851.878906 C 1475.925781 863.902344 1473.847656 875.878906 1471.476562 887.800781 C 1469.105469 899.726562 1466.441406 911.585938 1463.488281 923.378906 C 1460.53125 935.171875 1457.292969 946.886719 1453.761719 958.519531 C 1450.234375 970.152344 1446.421875 981.695312 1442.324219 993.140625 C 1438.230469 1004.589844 1433.855469 1015.929688 1429.203125 1027.160156 C 1424.550781 1038.394531 1419.625 1049.503906 1414.425781 1060.496094 C 1409.226562 1071.484375 1403.761719 1082.339844 1398.03125 1093.0625 C 1392.300781 1103.785156 1386.308594 1114.359375 1380.058594 1124.789062 C 1373.808594 1135.21875 1367.308594 1145.484375 1360.554688 1155.59375 C 1353.796875 1165.703125 1346.800781 1175.640625 1339.558594 1185.40625 C 1332.316406 1195.171875 1324.835938 1204.75 1317.125 1214.148438 C 1309.414062 1223.546875 1301.472656 1232.75 1293.308594 1241.757812 C 1285.144531 1250.765625 1276.761719 1259.570312 1268.167969 1268.167969 C 1259.570312 1276.761719 1250.765625 1285.144531 1241.757812 1293.308594 C 1232.75 1301.472656 1223.546875 1309.414062 1214.148438 1317.125 C 1204.75 1324.835938 1195.171875 1332.316406 1185.40625 1339.558594 C 1175.640625 1346.800781 1165.703125 1353.796875 1155.59375 1360.554688 C 1145.484375 1367.308594 1135.21875 1373.808594 1124.789062 1380.058594 C 1114.359375 1386.308594 1103.785156 1392.300781 1093.0625 1398.03125 C 1082.339844 1403.761719 1071.484375 1409.226562 1060.496094 1414.425781 C 1049.503906 1419.625 1038.394531 1424.550781 1027.160156 1429.203125 C 1015.929688 1433.855469 1004.589844 1438.230469 993.140625 1442.324219 C 981.695312 1446.421875 970.152344 1450.234375 958.519531 1453.761719 C 946.886719 1457.292969 935.171875 1460.53125 923.378906 1463.488281 C 911.585938 1466.441406 899.726562 1469.105469 887.800781 1471.476562 C 875.878906 1473.847656 863.902344 1475.925781 851.878906 1477.710938 C 839.851562 1479.492188 827.789062 1480.980469 815.691406 1482.171875 C 803.589844 1483.363281 791.46875 1484.257812 779.328125 1484.855469 C 767.183594 1485.453125 755.03125 1485.75 742.875 1485.75 C 730.71875 1485.75 718.566406 1485.453125 706.421875 1484.855469 C 694.28125 1484.257812 682.160156 1483.363281 670.058594 1482.171875 C 657.960938 1480.980469 645.898438 1479.492188 633.871094 1477.710938 C 621.847656 1475.925781 609.871094 1473.847656 597.945312 1471.476562 C 586.023438 1469.105469 574.164062 1466.441406 562.371094 1463.488281 C 550.578125 1460.53125 538.863281 1457.292969 527.230469 1453.761719 C 515.59375 1450.234375 504.054688 1446.421875 492.609375 1442.324219 C 481.160156 1438.230469 469.820312 1433.855469 458.589844 1429.203125 C 447.355469 1424.550781 436.246094 1419.625 425.253906 1414.425781 C 414.265625 1409.226562 403.410156 1403.761719 392.6875 1398.03125 C 381.964844 1392.300781 371.390625 1386.308594 360.960938 1380.058594 C 350.53125 1373.808594 340.265625 1367.308594 330.15625 1360.550781 C 320.046875 1353.796875 310.109375 1346.800781 300.34375 1339.558594 C 290.578125 1332.316406 281 1324.835938 271.601562 1317.125 C 262.203125 1309.414062 253 1301.472656 243.992188 1293.308594 C 234.980469 1285.144531 226.179688 1276.761719 217.582031 1268.167969 C 208.984375 1259.570312 200.605469 1250.765625 192.441406 1241.757812 C 184.277344 1232.75 176.335938 1223.546875 168.625 1214.148438 C 160.910156 1204.75 153.433594 1195.171875 146.191406 1185.40625 C 138.949219 1175.640625 131.953125 1165.703125 125.195312 1155.59375 C 118.441406 1145.484375 111.941406 1135.21875 105.691406 1124.789062 C 99.441406 1114.359375 93.449219 1103.785156 87.71875 1093.0625 C 81.988281 1082.339844 76.523438 1071.484375 71.324219 1060.496094 C 66.125 1049.503906 61.199219 1038.394531 56.546875 1027.160156 C 51.894531 1015.929688 47.519531 1004.589844 43.425781 993.140625 C 39.328125 981.695312 35.515625 970.152344 31.988281 958.519531 C 28.457031 946.886719 25.21875 935.171875 22.261719 923.378906 C 19.308594 911.585938 16.644531 899.726562 14.273438 887.800781 C 11.902344 875.878906 9.824219 863.902344 8.039062 851.878906 C 6.257812 839.851562 4.769531 827.789062 3.578125 815.6875 C 2.386719 803.589844 1.492188 791.46875 0.894531 779.324219 C 0.296875 767.183594 0 755.03125 0 742.875 C 0 730.71875 0.296875 718.566406 0.894531 706.421875 C 1.492188 694.28125 2.386719 682.160156 3.578125 670.058594 C 4.769531 657.960938 6.257812 645.898438 8.039062 633.871094 C 9.824219 621.847656 11.902344 609.871094 14.273438 597.945312 C 16.644531 586.023438 19.308594 574.164062 22.261719 562.371094 C 25.21875 550.578125 28.457031 538.863281 31.988281 527.230469 C 35.515625 515.59375 39.328125 504.054688 43.425781 492.609375 C 47.519531 481.160156 51.894531 469.820312 56.546875 458.589844 C 61.199219 447.355469 66.125 436.246094 71.324219 425.253906 C 76.523438 414.265625 81.988281 403.410156 87.71875 392.6875 C 93.449219 381.964844 99.441406 371.390625 105.691406 360.960938 C 111.941406 350.53125 118.441406 340.265625 125.195312 330.15625 C 131.953125 320.046875 138.949219 310.109375 146.191406 300.34375 C 153.433594 290.578125 160.910156 281 168.625 271.601562 C 176.335938 262.203125 184.277344 253 192.441406 243.992188 C 200.605469 234.980469 208.984375 226.179688 217.582031 217.582031 C 226.179688 208.984375 234.980469 200.605469 243.992188 192.441406 C 253 184.277344 262.203125 176.335938 271.601562 168.625 C 281 160.910156 290.578125 153.433594 300.34375 146.191406 C 310.109375 138.949219 320.046875 131.953125 330.15625 125.195312 C 340.265625 118.441406 350.53125 111.941406 360.960938 105.691406 C 371.390625 99.441406 381.964844 93.449219 392.6875 87.71875 C 403.410156 81.988281 414.265625 76.523438 425.253906 71.324219 C 436.246094 66.125 447.355469 61.199219 458.589844 56.546875 C 469.820312 51.894531 481.160156 47.519531 492.609375 43.425781 C 504.054688 39.328125 515.59375 35.515625 527.230469 31.988281 C 538.863281 28.457031 550.578125 25.21875 562.371094 22.261719 C 574.164062 19.308594 586.023438 16.644531 597.945312 14.273438 C 609.871094 11.902344 621.847656 9.824219 633.871094 8.039062 C 645.898438 6.257812 657.960938 4.769531 670.058594 3.578125 C 682.160156 2.386719 694.28125 1.492188 706.425781 0.894531 C 718.566406 0.296875 730.71875 0 742.875 0 C 755.03125 0 767.183594 0.296875 779.324219 0.894531 C 791.46875 1.492188 803.589844 2.386719 815.691406 3.578125 C 827.789062 4.769531 839.851562 6.257812 851.878906 8.039062 C 863.902344 9.824219 875.878906 11.902344 887.800781 14.273438 C 899.726562 16.644531 911.585938 19.308594 923.378906 22.261719 C 935.171875 25.21875 946.886719 28.457031 958.519531 31.988281 C 970.15625 35.515625 981.695312 39.328125 993.140625 43.425781 C 1004.589844 47.519531 1015.929688 51.894531 1027.160156 56.546875 C 1038.394531 61.199219 1049.503906 66.125 1060.496094 71.324219 C 1071.484375 76.523438 1082.339844 81.988281 1093.0625 87.71875 C 1103.785156 93.449219 1114.359375 99.441406 1124.789062 105.691406 C 1135.21875 111.941406 1145.484375 118.441406 1155.59375 125.195312 C 1165.703125 131.953125 1175.640625 138.949219 1185.40625 146.191406 C 1195.171875 153.433594 1204.75 160.910156 1214.148438 168.625 C 1223.546875 176.335938 1232.75 184.277344 1241.757812 192.441406 C 1250.765625 200.605469 1259.570312 208.984375 1268.167969 217.582031 C 1276.761719 226.179688 1285.144531 234.980469 1293.308594 243.992188 C 1301.472656 253 1309.414062 262.203125 1317.125 271.601562 C 1324.835938 281 1332.316406 290.578125 1339.558594 300.34375 C 1346.800781 310.109375 1353.796875 320.046875 1360.554688 330.15625 C 1367.308594 340.265625 1373.808594 350.53125 1380.058594 360.960938 C 1386.308594 371.390625 1392.300781 381.964844 1398.03125 392.6875 C 1403.761719 403.40625 1409.226562 414.265625 1414.425781 425.253906 C 1419.625 436.246094 1424.550781 447.355469 1429.203125 458.589844 C 1433.855469 469.820312 1438.230469 481.160156 1442.324219 492.609375 C 1446.421875 504.054688 1450.234375 515.59375 1453.761719 527.230469 C 1457.292969 538.863281 1460.53125 550.578125 1463.488281 562.371094 C 1466.441406 574.164062 1469.105469 586.023438 1471.476562 597.945312 C 1473.847656 609.871094 1475.925781 621.847656 1477.710938 633.871094 C 1479.492188 645.898438 1480.980469 657.960938 1482.171875 670.058594 C 1483.363281 682.160156 1484.257812 694.28125 1484.855469 706.425781 C 1485.453125 718.566406 1485.75 730.71875 1485.75 742.875 Z M 1485.75 742.875 " fill-opacity="1" fill-rule="nonzero"/></g><path fill="#212121" d="M 742.875 1414.894531 C 371.992188 1414.894531 70.855469 1113.757812 70.855469 742.875 C 70.855469 371.992188 371.992188 70.855469 742.875 70.855469 C 1113.757812 70.855469 1414.894531 371.992188 1414.894531 742.875 C 1414.894531 1113.757812 1113.757812 1414.894531 742.875 1414.894531 Z M 742.875 87.460938 C 380.847656 87.460938 87.460938 380.847656 87.460938 742.875 C 87.460938 1104.902344 381.957031 1398.289062 742.875 1398.289062 C 1104.902344 1398.289062 1398.289062 1103.792969 1398.289062 742.875 C 1398.289062 380.847656 1104.902344 87.460938 742.875 87.460938 Z M 742.875 87.460938 " fill-opacity="1" fill-rule="nonzero"/><path fill="#244abb" d="M 629.269531 734.84375 L 630.65625 735.460938 L 631.65625 735.921875 C 633.039062 736.535156 634.425781 737.074219 635.734375 737.691406 C 637.121094 738.308594 638.429688 738.847656 640.046875 739.460938 C 641.585938 740.078125 643.203125 740.695312 644.742188 741.308594 C 646.28125 741.925781 647.898438 742.542969 649.4375 743.082031 C 655.597656 745.3125 661.910156 747.46875 668.296875 749.46875 C 669.761719 749.933594 671.222656 750.394531 672.6875 750.777344 C 675.304688 749.699219 677.996094 748.625 680.847656 747.546875 C 684.695312 746.082031 688.542969 744.773438 691.855469 743.542969 L 698.398438 741.234375 L 702.324219 739.847656 C 710.253906 737.074219 717.414062 734.765625 724.109375 732.765625 C 726.035156 732.148438 727.882812 731.609375 729.804688 731.070312 C 725.804688 729.992188 721.878906 728.914062 718.027344 727.839844 C 704.941406 724.21875 692.394531 720.679688 680.769531 716.828125 C 674.917969 714.90625 669.300781 712.980469 663.832031 710.902344 C 662.449219 710.363281 661.214844 709.902344 659.90625 709.363281 C 658.675781 708.824219 657.367188 708.363281 656.136719 707.824219 C 654.902344 707.359375 653.441406 706.667969 652.132812 706.128906 C 650.746094 705.511719 649.359375 704.898438 648.050781 704.359375 L 647.050781 703.898438 L 646.820312 703.820312 L 646.359375 703.589844 C 645.742188 703.28125 645.125 702.972656 644.511719 702.742188 C 643.277344 702.125 642.125 701.585938 640.894531 700.972656 C 639.429688 700.203125 637.96875 699.507812 636.503906 698.738281 C 626.960938 693.734375 617.953125 687.960938 609.714844 681.339844 C 603.09375 676.03125 591.394531 667.792969 596.089844 658.402344 C 602.25 646.082031 620.878906 649.472656 632.5 647.929688 C 666.066406 643.390625 688.390625 635.230469 697.859375 626.453125 C 697.9375 626.375 698.011719 626.300781 698.089844 626.300781 C 699.089844 625.375 699.9375 624.527344 700.476562 623.683594 C 700.476562 623.683594 700.476562 623.683594 700.476562 623.605469 C 704.789062 617.445312 698.011719 616.523438 698.011719 616.523438 C 702.015625 611.828125 693.394531 604.050781 692.085938 603.28125 C 692.085938 603.28125 692.007812 603.28125 692.007812 603.203125 C 691.929688 603.203125 691.929688 603.128906 691.929688 603.128906 C 683.464844 599.046875 670.300781 596.96875 652.671875 596.96875 C 651.285156 596.96875 649.976562 596.96875 648.515625 596.96875 C 634.347656 597.199219 623.804688 602.050781 616.335938 607.4375 C 610.40625 611.75 603.863281 615.367188 596.78125 617.910156 C 596.550781 617.984375 596.320312 618.0625 596.089844 618.140625 C 582.539062 623.066406 568.992188 630.226562 560.445312 641.386719 C 535.351562 674.257812 579.847656 707.746094 607.484375 723.605469 C 609.714844 724.914062 611.949219 726.144531 614.257812 727.300781 C 614.335938 727.300781 614.335938 727.375 614.410156 727.375 C 614.488281 727.453125 614.566406 727.453125 614.566406 727.453125 C 617.335938 728.992188 620.109375 730.378906 622.957031 731.6875 C 624.339844 732.378906 625.804688 733.074219 627.191406 733.6875 C 627.882812 734.226562 628.574219 734.535156 629.269531 734.84375 Z M 629.269531 734.84375 " fill-opacity="1" fill-rule="nonzero"/><path fill="#244abb" d="M 856.054688 790.964844 C 855.441406 789.886719 854.746094 788.808594 854.054688 787.808594 C 853.285156 786.804688 852.59375 785.726562 851.824219 784.804688 C 851.050781 783.804688 850.207031 782.804688 849.359375 781.878906 C 848.898438 781.417969 848.511719 780.957031 848.050781 780.417969 L 846.433594 778.800781 L 845.585938 778.03125 L 845.046875 777.566406 L 843.96875 776.644531 C 843.96875 776.644531 843.355469 776.105469 843.199219 776.027344 L 842.894531 775.796875 L 842.199219 775.257812 L 840.890625 774.257812 C 840.042969 773.566406 839.121094 772.949219 838.195312 772.257812 C 837.273438 771.640625 836.347656 770.949219 835.425781 770.410156 C 831.730469 767.945312 827.957031 765.867188 824.1875 763.867188 C 820.261719 761.863281 816.257812 760.015625 812.332031 758.324219 C 801.324219 761.554688 790.238281 764.40625 779.84375 767.023438 C 775.765625 768.097656 771.609375 769.101562 767.527344 770.101562 C 763.910156 771.023438 760.136719 771.949219 756.441406 772.871094 C 760.445312 774.027344 764.449219 775.257812 768.453125 776.492188 C 771.914062 777.566406 775.457031 778.722656 778.921875 779.878906 C 782.386719 781.03125 785.773438 782.109375 789.160156 783.265625 C 795.855469 785.574219 802.167969 788.039062 808.019531 790.808594 C 810.945312 792.195312 813.714844 793.734375 816.335938 795.351562 C 817.027344 795.734375 817.644531 796.199219 818.257812 796.582031 C 818.875 796.96875 819.566406 797.429688 820.105469 797.890625 L 821.03125 798.585938 L 821.492188 798.890625 C 821.492188 798.890625 821.722656 799.046875 821.722656 799.046875 C 821.722656 799.125 821.800781 799.125 821.800781 799.125 L 822.648438 799.816406 L 823.183594 800.199219 L 823.339844 800.355469 C 823.417969 800.433594 823.570312 800.585938 823.722656 800.664062 L 824.261719 801.277344 C 824.648438 801.664062 825.03125 802.125 825.417969 802.511719 C 825.800781 802.894531 826.109375 803.433594 826.496094 803.820312 C 826.804688 804.28125 827.1875 804.742188 827.496094 805.203125 C 828.726562 807.128906 829.652344 809.207031 830.113281 811.054688 C 830.652344 812.902344 830.574219 814.519531 830.421875 815.675781 L 830.421875 815.75 C 830.421875 815.828125 830.421875 815.90625 830.421875 815.90625 L 830.035156 817.214844 C 830.035156 817.289062 830.035156 817.289062 830.035156 817.289062 C 830.035156 817.289062 830.035156 817.367188 829.960938 817.367188 C 829.960938 817.367188 829.960938 817.445312 829.960938 817.445312 C 829.960938 817.445312 829.960938 817.445312 829.960938 817.519531 L 829.882812 817.675781 C 829.652344 818.058594 829.574219 818.445312 829.191406 818.90625 L 828.804688 819.601562 C 828.652344 819.832031 828.496094 820.0625 828.34375 820.292969 C 827.035156 822.140625 825.1875 824.140625 822.953125 826.066406 C 820.722656 828.066406 818.105469 829.992188 815.410156 831.839844 C 814.71875 832.300781 814.023438 832.765625 813.253906 833.226562 L 811.175781 834.535156 L 806.171875 837.535156 L 801.324219 840.308594 L 796.394531 843.078125 C 783.078125 850.46875 769.222656 857.550781 755.132812 864.789062 C 753.671875 865.558594 752.285156 866.25 750.824219 867.019531 C 749.515625 867.714844 748.207031 868.328125 746.972656 869.023438 C 745.664062 869.714844 744.355469 870.332031 743.125 871.023438 C 740.121094 872.640625 737.042969 874.179688 734.039062 875.796875 C 727.574219 879.335938 721.109375 882.800781 714.640625 886.34375 C 714.179688 886.574219 713.71875 886.804688 713.253906 887.113281 C 712.410156 887.574219 711.5625 888.035156 710.714844 888.5 C 709.40625 889.191406 708.175781 889.882812 706.867188 890.652344 C 695.011719 897.351562 683.003906 904.742188 672.222656 914.132812 C 665.910156 919.675781 660.0625 925.988281 655.289062 933.148438 L 654.441406 934.457031 L 653.980469 935.148438 L 653.75 935.457031 C 653.75 935.457031 653.363281 936.074219 653.363281 936.148438 L 652.671875 937.382812 L 652.363281 937.996094 L 652.210938 938.304688 L 651.976562 938.765625 L 651.132812 940.539062 L 650.746094 941.460938 L 650.4375 942.308594 C 649.976562 943.386719 649.59375 944.539062 649.207031 945.695312 C 648.4375 948.003906 648.050781 950.390625 647.746094 952.777344 C 647.511719 955.164062 647.4375 957.550781 647.589844 959.9375 C 647.746094 962.324219 648.128906 964.554688 648.667969 966.789062 C 649.207031 969.019531 649.898438 971.175781 650.746094 973.179688 C 652.363281 977.257812 654.519531 981.03125 656.828125 984.496094 C 661.523438 991.421875 667.066406 997.195312 672.917969 1002.429688 C 675.84375 1005.046875 678.769531 1007.511719 681.847656 1009.820312 C 684.617188 1011.976562 687.851562 1014.363281 690.777344 1016.441406 C 696.78125 1020.753906 702.863281 1024.753906 708.867188 1028.605469 C 712.71875 1031.066406 716.488281 1033.53125 720.339844 1035.839844 C 720.953125 1035.457031 721.492188 1035.070312 722.109375 1034.609375 C 723.726562 1033.53125 725.34375 1032.378906 726.957031 1031.300781 C 729.269531 1029.683594 731.65625 1028.066406 734.039062 1026.449219 L 735.347656 1025.527344 C 735.8125 1025.21875 736.273438 1024.910156 736.734375 1024.601562 C 731.421875 1020.984375 726.113281 1017.367188 720.800781 1013.671875 C 715.101562 1009.667969 709.484375 1005.664062 704.019531 1001.429688 C 701.246094 999.273438 698.785156 997.273438 695.933594 994.964844 C 693.394531 992.808594 690.855469 990.574219 688.46875 988.34375 C 683.695312 983.726562 679.460938 978.875 676.304688 973.792969 C 674.6875 971.253906 673.457031 968.714844 672.53125 966.171875 C 672.070312 964.863281 671.761719 963.632812 671.453125 962.402344 C 671.222656 961.167969 671.070312 959.9375 671.070312 958.78125 C 670.992188 956.394531 671.378906 954.164062 672.148438 951.929688 C 672.300781 951.390625 672.609375 950.851562 672.839844 950.238281 L 672.996094 949.851562 L 673.148438 949.542969 C 673.226562 949.3125 673.378906 949.082031 673.457031 948.929688 L 673.535156 948.773438 C 673.535156 948.699219 673.609375 948.621094 673.6875 948.46875 L 674.070312 947.851562 C 674.070312 947.851562 674.6875 946.851562 674.6875 946.851562 C 674.6875 946.851562 674.6875 946.851562 674.6875 946.773438 C 674.6875 946.773438 674.6875 946.773438 674.6875 946.695312 L 674.84375 946.464844 L 675.148438 946.003906 L 675.84375 945.078125 C 679.460938 940.074219 684.003906 935.457031 689.316406 931.144531 C 694.550781 926.835938 700.476562 922.910156 706.789062 919.214844 C 713.101562 915.519531 719.722656 911.976562 726.574219 908.511719 C 729.34375 907.128906 732.191406 905.664062 734.964844 904.28125 C 736.273438 903.585938 737.660156 902.972656 738.96875 902.277344 C 740.277344 901.585938 741.660156 900.96875 742.972656 900.277344 C 744.511719 899.507812 746.050781 898.738281 747.511719 897.96875 C 754.441406 894.503906 761.445312 891.191406 768.605469 887.804688 C 769.53125 887.34375 770.53125 886.882812 771.453125 886.421875 C 772.761719 885.804688 774.148438 885.1875 775.457031 884.496094 C 776.765625 883.878906 778.152344 883.265625 779.460938 882.570312 C 790.082031 877.488281 800.859375 872.332031 811.484375 866.867188 L 816.796875 864.09375 L 822.183594 861.171875 L 827.34375 858.320312 L 828.804688 857.476562 L 830.191406 856.628906 C 831.113281 856.089844 832.039062 855.550781 833.039062 854.933594 C 836.734375 852.625 840.429688 850.007812 844.046875 847.082031 C 847.664062 844.082031 851.128906 840.769531 854.285156 836.613281 C 854.671875 836.074219 855.054688 835.613281 855.441406 835.074219 L 856.59375 833.378906 C 857.367188 832.300781 857.980469 830.992188 858.675781 829.839844 L 858.90625 829.375 L 859.136719 828.761719 L 859.675781 827.605469 L 860.136719 826.375 L 860.597656 825.21875 L 861.058594 823.910156 L 861.292969 823.296875 C 861.292969 823.296875 861.523438 822.371094 861.597656 822.140625 L 861.753906 821.601562 C 863.140625 815.75 862.90625 809.976562 861.753906 804.820312 C 860.519531 799.96875 858.597656 795.273438 856.054688 790.964844 Z M 856.054688 790.964844 " fill-opacity="1" fill-rule="nonzero"/><path fill="#244abb" d="M 804.246094 1093.269531 L 804.171875 1092.730469 L 804.09375 1091.730469 L 804.015625 1091.191406 L 804.015625 1090.960938 C 803.941406 1090.265625 803.941406 1090.574219 803.941406 1090.34375 L 803.707031 1089.113281 C 803.554688 1088.265625 803.324219 1087.496094 803.09375 1086.648438 C 802.167969 1083.339844 800.859375 1080.183594 799.242188 1077.179688 C 795.933594 1071.175781 791.46875 1065.941406 786.617188 1061.246094 C 781.691406 1056.550781 776.378906 1052.390625 770.914062 1048.464844 C 769.144531 1047.15625 767.296875 1045.925781 765.527344 1044.617188 C 765.140625 1044.925781 764.679688 1045.15625 764.21875 1045.386719 L 763.601562 1045.773438 C 761.367188 1047.15625 759.058594 1048.621094 756.828125 1050.007812 L 754.980469 1051.160156 C 753.671875 1052.007812 752.363281 1052.855469 751.054688 1053.625 C 750.589844 1053.933594 750.128906 1054.238281 749.667969 1054.546875 C 753.363281 1056.855469 756.902344 1059.011719 760.292969 1061.320312 C 765.527344 1064.785156 770.375 1068.328125 774.609375 1072.097656 C 778.84375 1075.871094 782.460938 1079.796875 785.003906 1083.953125 C 786.3125 1086.035156 787.3125 1088.1875 788.003906 1090.265625 C 788.160156 1090.804688 788.390625 1091.34375 788.464844 1091.882812 L 788.699219 1092.652344 C 788.699219 1092.652344 788.699219 1092.730469 788.699219 1092.730469 L 788.699219 1092.808594 L 788.773438 1093.347656 L 788.929688 1094.347656 L 789.003906 1094.808594 L 789.003906 1095.117188 C 789.003906 1095.578125 789.082031 1095.964844 789.082031 1096.425781 C 789.160156 1100.582031 787.851562 1104.816406 785.695312 1108.898438 C 783.460938 1112.976562 780.539062 1116.824219 777.226562 1120.445312 C 770.683594 1127.679688 763.0625 1133.914062 755.75 1139.6875 C 753.363281 1141.613281 750.898438 1143.460938 748.589844 1145.386719 C 747.589844 1146.15625 746.664062 1146.925781 745.664062 1147.695312 C 745.433594 1147.847656 745.203125 1148.082031 744.972656 1148.234375 C 744.203125 1148.851562 743.507812 1149.464844 742.738281 1150.003906 C 741.816406 1150.773438 740.890625 1151.46875 739.96875 1152.238281 C 738.273438 1153.546875 736.65625 1154.855469 735.042969 1156.085938 C 734.65625 1156.394531 734.269531 1156.703125 733.886719 1157.011719 C 732.886719 1157.78125 731.886719 1158.550781 730.960938 1159.320312 C 729.960938 1160.089844 729.035156 1160.859375 728.035156 1161.707031 C 724.265625 1164.785156 720.722656 1167.789062 717.566406 1170.789062 C 712.484375 1175.5625 708.328125 1180.257812 705.171875 1184.800781 C 702.015625 1189.265625 699.9375 1193.5 698.707031 1197.195312 C 697.472656 1200.8125 697.089844 1203.816406 696.933594 1205.738281 C 696.859375 1206.738281 696.859375 1207.511719 696.859375 1207.972656 C 696.859375 1208.511719 696.859375 1208.742188 696.859375 1208.742188 C 696.859375 1210.589844 698.398438 1212.128906 700.398438 1212.28125 C 700.476562 1212.28125 700.554688 1212.28125 700.628906 1212.28125 C 702.632812 1212.28125 704.324219 1210.898438 704.480469 1209.050781 L 704.480469 1208.742188 C 704.480469 1208.742188 704.480469 1208.511719 704.554688 1208.125 C 704.554688 1207.742188 704.554688 1207.125 704.710938 1206.355469 C 704.863281 1204.816406 705.328125 1202.507812 706.480469 1199.582031 C 706.710938 1198.886719 707.097656 1198.117188 707.480469 1197.269531 C 707.945312 1196.5 708.25 1195.65625 708.789062 1194.808594 C 709.792969 1193.113281 711.023438 1191.265625 712.484375 1189.417969 C 715.410156 1185.648438 719.414062 1181.566406 724.417969 1177.332031 C 727.957031 1174.332031 731.960938 1171.175781 736.425781 1167.941406 C 737.425781 1167.171875 738.429688 1166.480469 739.507812 1165.707031 C 740.277344 1165.171875 741.121094 1164.554688 741.894531 1164.015625 C 742.125 1163.863281 742.355469 1163.707031 742.585938 1163.476562 C 744.046875 1162.476562 745.511719 1161.398438 746.972656 1160.320312 C 748.359375 1159.320312 749.898438 1158.164062 751.363281 1157.085938 C 751.667969 1156.855469 751.976562 1156.625 752.285156 1156.394531 C 752.976562 1155.855469 753.671875 1155.316406 754.441406 1154.855469 C 755.441406 1154.085938 756.441406 1153.390625 757.519531 1152.621094 C 759.445312 1151.238281 761.367188 1149.851562 763.371094 1148.386719 C 771.070312 1142.769531 779.460938 1136.609375 787.3125 1128.679688 C 791.238281 1124.679688 795.011719 1120.289062 798.242188 1115.054688 C 799.78125 1112.4375 801.167969 1109.589844 802.246094 1106.511719 C 803.246094 1103.429688 804.015625 1100.121094 804.09375 1096.65625 C 804.171875 1095.808594 804.09375 1094.808594 804.015625 1093.886719 Z M 804.246094 1093.269531 " fill-opacity="1" fill-rule="nonzero"/><path fill="#244abb" d="M 836.734375 945.773438 C 836.425781 944.617188 835.964844 943.464844 835.503906 942.386719 L 835.195312 941.539062 L 834.808594 940.613281 L 833.960938 938.84375 L 833.730469 938.382812 L 833.578125 938.074219 L 833.269531 937.457031 L 832.578125 936.226562 C 832.578125 936.226562 832.191406 935.535156 832.191406 935.535156 L 831.960938 935.226562 L 831.5 934.535156 L 830.652344 933.226562 C 825.957031 926.066406 820.027344 919.753906 813.714844 914.210938 C 802.9375 904.820312 790.929688 897.429688 779.074219 890.730469 C 778.691406 890.960938 778.304688 891.117188 777.84375 891.347656 C 775.917969 892.269531 773.992188 893.195312 772.070312 894.117188 C 765.296875 897.351562 758.136719 900.816406 751.128906 904.203125 C 751.054688 904.28125 750.898438 904.28125 750.824219 904.355469 C 753.59375 905.742188 756.441406 907.203125 759.214844 908.589844 C 766.066406 912.054688 772.761719 915.597656 778.996094 919.292969 C 785.308594 922.984375 791.160156 926.914062 796.472656 931.222656 C 801.707031 935.535156 806.328125 940.152344 809.945312 945.15625 L 810.636719 946.082031 L 810.945312 946.542969 L 811.097656 946.773438 C 811.097656 946.773438 811.097656 946.851562 811.097656 946.851562 C 811.097656 946.851562 811.097656 946.925781 811.097656 946.925781 C 811.097656 946.925781 811.714844 947.929688 811.714844 947.929688 L 812.101562 948.542969 C 812.175781 948.621094 812.253906 948.773438 812.253906 948.851562 L 812.332031 949.007812 C 812.40625 949.238281 812.5625 949.46875 812.640625 949.621094 L 812.792969 949.929688 L 812.945312 950.316406 C 813.175781 950.855469 813.484375 951.390625 813.640625 952.007812 C 814.410156 954.242188 814.792969 956.472656 814.71875 958.859375 C 814.71875 960.015625 814.5625 961.246094 814.332031 962.476562 C 814.023438 963.710938 813.792969 964.941406 813.253906 966.25 C 812.40625 968.789062 811.097656 971.332031 809.480469 973.871094 C 806.328125 978.953125 802.09375 983.878906 797.320312 988.421875 C 794.933594 990.730469 792.46875 992.960938 789.851562 995.039062 C 787.003906 997.425781 784.539062 999.351562 781.769531 1001.507812 C 776.304688 1005.742188 770.683594 1009.820312 764.988281 1013.746094 C 759.675781 1017.441406 754.363281 1021.0625 749.050781 1024.679688 C 748.667969 1024.910156 748.28125 1025.21875 747.898438 1025.449219 C 747.203125 1025.910156 746.511719 1026.371094 745.820312 1026.835938 C 744.742188 1027.527344 743.664062 1028.296875 742.585938 1028.988281 C 741.507812 1029.757812 740.429688 1030.453125 739.351562 1031.222656 C 736.582031 1033.148438 733.734375 1035.070312 730.960938 1036.996094 C 729.5 1037.996094 727.957031 1038.996094 726.417969 1040.074219 C 725.339844 1040.769531 724.265625 1041.539062 723.1875 1042.308594 C 722.109375 1043.078125 721.03125 1043.769531 719.953125 1044.539062 C 718.105469 1045.773438 716.335938 1047.082031 714.5625 1048.390625 C 709.097656 1052.316406 703.785156 1056.472656 698.859375 1061.167969 C 694.011719 1065.863281 689.546875 1071.097656 686.234375 1077.101562 C 684.617188 1080.105469 683.234375 1083.261719 682.386719 1086.570312 C 682.15625 1087.417969 681.921875 1088.1875 681.769531 1089.035156 L 681.539062 1090.265625 C 681.539062 1090.5 681.539062 1090.191406 681.460938 1090.882812 L 681.460938 1091.113281 L 681.386719 1091.652344 L 681.308594 1092.652344 L 681.230469 1093.191406 L 681.230469 1093.886719 C 681.230469 1094.808594 681.152344 1095.808594 681.152344 1096.65625 C 681.230469 1100.121094 681.925781 1103.429688 683 1106.511719 C 684.078125 1109.589844 685.464844 1112.4375 687.003906 1115.054688 C 690.160156 1120.289062 694.011719 1124.753906 697.9375 1128.679688 C 705.863281 1136.609375 714.179688 1142.769531 721.878906 1148.386719 C 723.878906 1149.851562 725.878906 1151.238281 727.726562 1152.621094 C 728.496094 1152.007812 729.191406 1151.46875 729.960938 1150.851562 C 731.191406 1149.851562 732.425781 1148.851562 733.734375 1147.847656 L 734.886719 1146.925781 C 735.582031 1146.386719 736.273438 1145.847656 736.890625 1145.386719 C 734.503906 1143.539062 732.117188 1141.613281 729.730469 1139.6875 C 722.417969 1133.914062 714.796875 1127.679688 708.25 1120.445312 C 705.019531 1116.824219 702.015625 1112.976562 699.785156 1108.898438 C 697.628906 1104.816406 696.242188 1100.582031 696.394531 1096.425781 C 696.394531 1095.886719 696.472656 1095.578125 696.472656 1095.117188 L 696.472656 1094.808594 L 696.550781 1094.347656 L 696.703125 1093.347656 L 696.78125 1092.808594 L 696.78125 1092.730469 C 696.78125 1092.652344 696.78125 1092.652344 696.78125 1092.652344 L 697.011719 1091.882812 C 697.089844 1091.34375 697.320312 1090.804688 697.472656 1090.265625 C 698.167969 1088.113281 699.167969 1086.035156 700.476562 1083.953125 C 703.015625 1079.796875 706.636719 1075.792969 710.867188 1072.101562 C 715.101562 1068.328125 720.03125 1064.785156 725.1875 1061.324219 C 728.574219 1059.089844 732.117188 1056.855469 735.8125 1054.546875 C 736.964844 1053.855469 738.042969 1053.164062 739.199219 1052.46875 C 740.042969 1051.929688 740.96875 1051.390625 741.816406 1050.851562 C 742.046875 1050.699219 742.277344 1050.542969 742.585938 1050.390625 C 745.125 1048.773438 747.742188 1047.082031 750.359375 1045.464844 C 753.132812 1043.769531 755.902344 1042 758.675781 1040.230469 C 758.75 1040.152344 758.90625 1040.074219 758.980469 1040 C 759.984375 1039.382812 760.984375 1038.765625 761.984375 1038.074219 C 763.0625 1037.382812 764.21875 1036.6875 765.371094 1035.996094 C 769.144531 1033.609375 772.992188 1031.222656 776.84375 1028.757812 C 782.847656 1024.910156 788.929688 1020.828125 794.933594 1016.597656 C 797.859375 1014.515625 801.089844 1012.132812 803.863281 1009.976562 C 806.941406 1007.589844 809.867188 1005.203125 812.792969 1002.585938 C 818.566406 997.351562 824.1875 991.578125 828.882812 984.648438 C 831.191406 981.183594 833.347656 977.414062 834.964844 973.332031 C 835.808594 971.332031 836.503906 969.097656 837.042969 966.941406 C 837.503906 964.710938 837.964844 962.402344 838.121094 960.089844 C 838.273438 957.78125 838.195312 955.320312 837.964844 952.933594 C 837.890625 950.46875 837.503906 948.082031 836.734375 945.773438 Z M 836.734375 945.773438 " fill-opacity="1" fill-rule="nonzero"/><path fill="#244abb" d="M 788.542969 1205.96875 C 788.390625 1203.96875 788.003906 1201.042969 786.773438 1197.425781 C 785.617188 1193.808594 783.460938 1189.574219 780.304688 1185.03125 C 777.148438 1180.488281 772.992188 1175.871094 767.914062 1171.019531 C 764.757812 1168.019531 761.214844 1165.015625 757.441406 1161.9375 C 757.441406 1161.9375 757.367188 1162.015625 757.367188 1162.015625 C 755.59375 1163.324219 753.746094 1164.707031 751.898438 1166.015625 C 750.898438 1166.710938 749.898438 1167.402344 748.976562 1168.09375 C 753.363281 1171.328125 757.441406 1174.484375 760.984375 1177.488281 C 765.910156 1181.722656 769.914062 1185.800781 772.917969 1189.574219 C 774.378906 1191.496094 775.609375 1193.269531 776.613281 1194.960938 C 777.148438 1195.808594 777.535156 1196.65625 777.921875 1197.425781 C 778.226562 1198.195312 778.613281 1198.964844 778.921875 1199.734375 C 780.074219 1202.660156 780.539062 1204.96875 780.691406 1206.507812 C 780.84375 1207.277344 780.769531 1207.894531 780.84375 1208.28125 C 780.84375 1208.664062 780.921875 1208.894531 780.921875 1208.894531 L 780.921875 1209.203125 C 781.078125 1211.050781 782.769531 1212.4375 784.773438 1212.4375 C 784.847656 1212.4375 784.925781 1212.4375 785.003906 1212.4375 C 787.003906 1212.28125 788.621094 1210.742188 788.542969 1208.894531 C 788.542969 1208.894531 788.542969 1208.664062 788.542969 1208.125 C 788.542969 1207.742188 788.621094 1206.972656 788.542969 1205.96875 Z M 788.542969 1205.96875 " fill-opacity="1" fill-rule="nonzero"/><path fill="#244abb" d="M 925.261719 641.542969 C 916.71875 630.378906 903.167969 623.296875 889.621094 618.292969 C 889.390625 618.214844 889.160156 618.140625 888.925781 618.0625 C 881.84375 615.523438 875.300781 611.902344 869.375 607.59375 C 861.90625 602.128906 851.359375 597.355469 837.195312 597.125 C 835.808594 597.125 834.425781 597.125 833.039062 597.125 C 815.410156 597.125 802.246094 599.277344 793.777344 603.28125 C 793.777344 603.28125 793.777344 603.28125 793.703125 603.359375 C 793.703125 603.359375 793.625 603.359375 793.625 603.4375 C 792.316406 604.207031 783.695312 611.980469 787.695312 616.675781 C 787.695312 616.675781 780.921875 617.601562 785.234375 623.757812 C 785.234375 623.757812 785.234375 623.757812 785.234375 623.835938 C 785.773438 624.683594 786.617188 625.53125 787.621094 626.453125 C 787.695312 626.53125 787.773438 626.53125 787.851562 626.605469 C 797.320312 635.382812 819.644531 643.621094 853.207031 648.085938 C 864.832031 649.625 883.460938 646.238281 889.621094 658.554688 C 894.316406 667.871094 882.613281 676.183594 875.996094 681.496094 C 867.757812 688.117188 858.671875 693.890625 849.203125 698.894531 C 847.742188 699.664062 846.355469 700.433594 844.816406 701.125 C 843.585938 701.742188 842.429688 702.28125 841.199219 702.894531 C 840.582031 703.203125 839.96875 703.511719 839.351562 703.742188 L 838.890625 703.972656 L 838.660156 704.050781 L 837.65625 704.511719 C 836.273438 705.128906 834.964844 705.746094 833.578125 706.28125 C 832.269531 706.898438 830.730469 707.515625 829.574219 707.976562 C 828.34375 708.515625 827.035156 708.976562 825.800781 709.515625 C 824.492188 710.054688 823.261719 710.515625 821.875 711.054688 C 816.410156 713.132812 810.792969 715.058594 804.941406 716.984375 C 793.238281 720.832031 780.769531 724.375 767.679688 727.992188 C 763.832031 729.070312 759.90625 730.148438 755.902344 731.226562 C 753.746094 731.839844 751.59375 732.378906 749.4375 732.996094 C 747.28125 733.613281 745.125 734.226562 742.96875 734.84375 C 737.660156 736.382812 732.191406 737.921875 726.726562 739.617188 C 719.644531 741.695312 712.484375 744.082031 705.25 746.621094 C 701.785156 747.851562 698.320312 749.085938 694.855469 750.238281 C 691.394531 751.472656 687.851562 752.78125 684.234375 754.089844 C 684.15625 754.089844 684.15625 754.164062 684.078125 754.164062 C 682.308594 754.859375 680.539062 755.550781 678.691406 756.246094 C 676.921875 756.9375 675.226562 757.628906 673.457031 758.398438 C 669.53125 760.09375 665.527344 761.863281 661.601562 763.941406 C 657.828125 765.945312 654.058594 768.097656 650.363281 770.484375 C 649.4375 771.101562 648.515625 771.71875 647.589844 772.332031 C 646.667969 772.949219 645.742188 773.640625 644.894531 774.335938 L 643.585938 775.335938 L 642.894531 775.875 L 642.585938 776.105469 C 642.507812 776.183594 641.816406 776.722656 641.816406 776.722656 L 640.199219 778.105469 L 639.351562 778.875 L 637.738281 780.492188 C 637.273438 781.03125 636.8125 781.417969 636.429688 781.957031 C 635.503906 782.878906 634.734375 783.878906 633.964844 784.882812 C 633.195312 785.882812 632.425781 786.882812 631.730469 787.882812 C 631.039062 788.960938 630.347656 789.960938 629.730469 791.039062 C 627.191406 795.351562 625.265625 800.046875 624.109375 805.203125 C 622.957031 810.363281 622.800781 816.058594 624.109375 821.988281 L 624.265625 822.523438 C 624.34375 822.757812 624.574219 823.679688 624.574219 823.679688 L 624.804688 824.296875 L 625.265625 825.605469 L 625.726562 826.757812 L 626.1875 827.992188 L 626.726562 829.144531 L 626.960938 829.761719 L 627.191406 830.222656 C 627.882812 831.457031 628.5 832.6875 629.269531 833.765625 L 630.421875 835.457031 C 630.808594 835.996094 631.191406 836.457031 631.578125 836.996094 C 634.734375 841.078125 638.277344 844.464844 641.816406 847.46875 C 645.433594 850.390625 649.128906 853.011719 652.824219 855.320312 C 653.75 855.933594 654.671875 856.472656 655.671875 857.011719 L 657.058594 857.859375 L 658.523438 858.707031 L 663.679688 861.554688 L 669.066406 864.480469 L 674.378906 867.25 C 685.003906 872.792969 695.78125 877.953125 706.402344 882.957031 C 707.328125 882.492188 708.25 881.953125 709.097656 881.492188 C 716.027344 877.722656 722.957031 873.949219 729.882812 870.175781 C 731.652344 869.253906 733.347656 868.328125 735.117188 867.40625 C 733.65625 866.636719 732.269531 865.941406 730.808594 865.171875 C 716.796875 857.9375 702.863281 850.855469 689.546875 843.464844 L 684.617188 840.691406 L 679.769531 837.921875 L 674.765625 834.917969 L 672.6875 833.609375 C 671.992188 833.148438 671.222656 832.6875 670.53125 832.226562 C 667.757812 830.378906 665.21875 828.453125 662.988281 826.453125 C 660.753906 824.527344 658.90625 822.523438 657.597656 820.675781 C 657.445312 820.445312 657.289062 820.214844 657.136719 819.984375 L 656.75 819.292969 C 656.441406 818.828125 656.289062 818.445312 656.058594 818.058594 L 655.980469 817.90625 C 655.980469 817.90625 655.980469 817.90625 655.980469 817.828125 C 655.980469 817.828125 655.980469 817.753906 655.980469 817.753906 C 655.980469 817.753906 655.980469 817.675781 655.90625 817.675781 C 655.90625 817.675781 655.90625 817.675781 655.90625 817.597656 L 655.519531 816.289062 C 655.519531 816.289062 655.519531 816.210938 655.519531 816.136719 L 655.519531 816.058594 C 655.367188 814.902344 655.289062 813.289062 655.828125 811.441406 C 656.289062 809.59375 657.214844 807.515625 658.445312 805.589844 C 658.753906 805.128906 659.0625 804.664062 659.445312 804.203125 C 659.832031 803.742188 660.136719 803.28125 660.523438 802.894531 C 660.90625 802.433594 661.214844 802.046875 661.679688 801.664062 L 662.21875 801.046875 C 662.371094 800.96875 662.449219 800.816406 662.601562 800.738281 L 662.753906 800.585938 L 663.292969 800.199219 L 664.140625 799.507812 C 664.140625 799.507812 664.21875 799.507812 664.21875 799.429688 C 664.21875 799.429688 664.449219 799.277344 664.449219 799.277344 L 664.910156 798.96875 L 665.835938 798.277344 C 666.449219 797.8125 667.066406 797.429688 667.683594 796.96875 C 668.296875 796.582031 668.914062 796.121094 669.605469 795.734375 C 672.222656 794.121094 674.996094 792.65625 677.921875 791.195312 C 683.773438 788.421875 690.160156 785.960938 696.78125 783.648438 C 700.089844 782.496094 703.554688 781.417969 707.019531 780.261719 C 710.5625 779.109375 714.027344 778.03125 717.488281 776.875 C 721.492188 775.644531 725.496094 774.410156 729.5 773.257812 C 731.730469 772.5625 733.964844 771.949219 736.273438 771.332031 C 736.734375 771.179688 737.195312 771.101562 737.660156 770.949219 C 739.507812 770.410156 741.277344 769.945312 743.125 769.484375 C 754.824219 766.40625 766.527344 763.558594 778.074219 760.632812 C 786.082031 758.628906 794.007812 756.550781 801.859375 754.398438 C 803.785156 753.859375 805.710938 753.320312 807.636719 752.78125 C 809.484375 752.242188 811.328125 751.703125 813.175781 751.164062 C 814.640625 750.703125 816.101562 750.238281 817.566406 749.855469 C 823.953125 747.851562 830.265625 745.699219 836.425781 743.464844 C 837.964844 742.925781 839.582031 742.308594 841.121094 741.695312 C 842.660156 741.078125 844.277344 740.464844 845.816406 739.847656 C 847.433594 739.230469 848.742188 738.617188 850.128906 738.078125 C 851.515625 737.460938 852.898438 736.921875 854.207031 736.304688 L 855.210938 735.84375 L 856.59375 735.226562 C 857.289062 734.921875 858.058594 734.613281 858.75 734.226562 C 860.136719 733.535156 861.597656 732.917969 862.984375 732.226562 C 865.832031 730.839844 868.605469 729.453125 871.375 727.992188 C 871.375 727.992188 871.453125 727.992188 871.53125 727.914062 C 871.605469 727.914062 871.605469 727.839844 871.683594 727.839844 C 873.992188 726.683594 876.226562 725.453125 878.457031 724.144531 C 905.863281 707.898438 950.359375 674.414062 925.261719 641.542969 Z M 925.261719 641.542969 " fill-opacity="1" fill-rule="nonzero"/><path fill="#244abb" d="M 743.507812 1019.984375 C 743.742188 1019.828125 743.894531 1019.675781 744.125 1019.597656 C 744.355469 1019.445312 744.511719 1019.289062 744.742188 1019.214844 C 748.511719 1016.671875 751.976562 1014.285156 755.441406 1011.898438 L 757.980469 916.058594 C 757.136719 915.671875 756.367188 915.210938 755.59375 914.828125 C 752.824219 913.441406 750.128906 912.054688 747.359375 910.667969 L 747.128906 910.59375 L 742.894531 908.4375 L 742.585938 908.589844 C 741.277344 909.285156 739.890625 909.976562 738.582031 910.59375 L 738.273438 910.746094 C 735.582031 912.132812 732.886719 913.441406 730.269531 914.828125 C 729.5 915.210938 728.652344 915.597656 727.804688 916.058594 L 730.34375 1011.898438 C 733.964844 1014.441406 737.582031 1016.828125 741.046875 1019.214844 L 742.894531 1020.445312 Z M 743.507812 1019.984375 " fill-opacity="1" fill-rule="nonzero"/><path fill="#244abb" d="M 742.816406 1140.921875 C 743.046875 1140.691406 743.277344 1140.535156 743.507812 1140.304688 C 744.511719 1139.535156 745.585938 1138.6875 746.589844 1137.839844 C 747.972656 1136.765625 749.28125 1135.6875 750.667969 1134.609375 C 751.128906 1134.222656 751.59375 1133.839844 752.054688 1133.53125 L 753.824219 1065.863281 C 751.128906 1064.09375 748.28125 1062.324219 745.125 1060.398438 L 742.664062 1058.859375 C 741.816406 1059.398438 740.96875 1059.859375 740.199219 1060.398438 C 737.121094 1062.324219 734.273438 1064.09375 731.5 1065.863281 L 733.269531 1133.453125 C 733.734375 1133.839844 734.195312 1134.222656 734.65625 1134.609375 C 735.8125 1135.53125 736.964844 1136.378906 738.042969 1137.304688 C 739.351562 1138.304688 740.585938 1139.304688 741.816406 1140.304688 Z M 742.816406 1140.921875 " fill-opacity="1" fill-rule="nonzero"/><path fill="#244abb" d="M 742.816406 1172.558594 C 742.355469 1172.867188 741.894531 1173.253906 741.429688 1173.5625 C 738.96875 1175.410156 736.65625 1177.101562 734.65625 1178.71875 L 736.425781 1247.15625 C 736.503906 1250.234375 739.273438 1252.773438 742.664062 1252.851562 C 746.203125 1252.929688 749.128906 1250.390625 749.207031 1247.15625 L 750.976562 1178.71875 C 748.898438 1177.101562 746.664062 1175.410156 744.203125 1173.5625 Z M 742.816406 1172.558594 " fill-opacity="1" fill-rule="nonzero"/><path fill="#244abb" d="M 742.894531 863.09375 C 743.816406 862.632812 744.664062 862.171875 745.585938 861.710938 L 746.820312 861.09375 C 748.28125 860.324219 749.667969 859.628906 751.128906 858.859375 C 752.976562 857.9375 754.824219 856.9375 756.75 856.011719 C 757.675781 855.550781 758.597656 855.011719 759.597656 854.550781 L 761.523438 781.800781 C 758.984375 781.03125 756.519531 780.261719 754.210938 779.648438 L 743.125 776.414062 C 741.96875 776.722656 740.816406 777.027344 739.660156 777.335938 C 739.273438 777.414062 738.890625 777.566406 738.503906 777.644531 L 738.351562 777.644531 C 736.195312 778.261719 733.964844 778.875 731.808594 779.492188 C 729.5 780.1875 727.035156 780.878906 724.496094 781.648438 L 726.417969 854.394531 C 727.34375 854.859375 728.265625 855.398438 729.269531 855.859375 C 731.117188 856.78125 732.960938 857.78125 734.886719 858.707031 C 736.273438 859.476562 737.734375 860.167969 739.199219 860.9375 Z M 742.894531 863.09375 " fill-opacity="1" fill-rule="nonzero"/><path fill="#244abb" d="M 705.09375 482.421875 L 716.335938 482.421875 L 722.648438 721.832031 L 724.878906 722.449219 C 727.265625 723.066406 729.652344 723.757812 732.039062 724.449219 L 742.816406 727.453125 C 744.203125 727.066406 745.664062 726.683594 747.050781 726.296875 C 749.207031 725.683594 751.4375 725.066406 753.59375 724.527344 C 755.980469 723.835938 758.367188 723.21875 760.753906 722.527344 L 762.984375 721.910156 L 769.296875 482.496094 L 781.382812 482.496094 C 789.46875 482.496094 796.011719 476.492188 796.011719 469.101562 C 796.011719 465.40625 794.394531 462.019531 791.699219 459.632812 C 789.082031 457.246094 785.386719 455.707031 781.308594 455.707031 L 777.226562 455.707031 C 785.542969 447.855469 790.621094 437.15625 790.621094 425.378906 C 790.621094 401.207031 769.222656 381.652344 742.816406 381.652344 C 716.410156 381.652344 695.011719 401.207031 695.011719 425.378906 C 695.011719 437.15625 700.089844 447.855469 708.40625 455.707031 L 705.09375 455.707031 C 697.011719 455.707031 690.46875 461.710938 690.46875 469.101562 C 690.46875 472.796875 692.085938 476.183594 694.78125 478.570312 C 697.398438 480.957031 701.09375 482.421875 705.09375 482.421875 Z M 705.09375 482.421875 " fill-opacity="1" fill-rule="nonzero"/><g clip-path="url(#e1dc1d2cfe)"><path fill="#244abb" d="M 1178.378906 463.023438 C 1226.414062 428.609375 1219.792969 381.730469 1219.792969 381.730469 C 1209.171875 396.664062 1189.386719 399.820312 1189.386719 399.820312 C 1227.878906 367.488281 1211.402344 325.839844 1211.402344 325.839844 C 1213.25 330.535156 1178.917969 356.480469 1174.222656 360.175781 C 1162.675781 369.105469 1150.355469 377.109375 1137.269531 383.730469 C 1116.175781 394.355469 1093.160156 401.050781 1069.371094 403.207031 C 1038.734375 405.976562 1006.941406 398.433594 975.6875 400.28125 C 944.894531 402.128906 918.71875 418.679688 895.546875 436.695312 C 869.683594 456.941406 846.046875 474.800781 816.488281 490.425781 C 799.859375 499.203125 790.699219 516.523438 792.46875 534.539062 C 792.546875 534.921875 792.546875 535.382812 792.546875 535.769531 C 794.164062 563.40625 835.425781 577.953125 835.425781 577.953125 C 823.339844 563.328125 826.109375 555.554688 826.109375 555.554688 C 848.667969 585.808594 885.464844 584.730469 885.464844 584.730469 C 873.917969 570.101562 872.300781 556.554688 872.300781 556.554688 C 909.097656 601.894531 949.820312 589.886719 949.820312 589.886719 C 938.8125 578.957031 936.65625 569.5625 936.65625 569.5625 C 964.136719 598.199219 1010.328125 581.574219 1010.328125 581.574219 C 998.242188 575.875 993.316406 565.40625 993.316406 565.40625 C 1033.421875 585.730469 1073.605469 570.101562 1073.605469 570.101562 C 1056.824219 566.484375 1047.277344 553.320312 1046.972656 552.9375 C 1091.234375 576.878906 1138.65625 542.160156 1138.65625 542.160156 C 1121.410156 541.851562 1110.09375 535.539062 1110.09375 535.539062 C 1167.292969 534.152344 1186.691406 500.820312 1186.691406 500.820312 C 1172.066406 509.132812 1152.589844 503.28125 1152.589844 503.28125 C 1205.015625 486.269531 1209.785156 450.472656 1209.785156 450.472656 C 1202.164062 458.863281 1178.378906 463.023438 1178.378906 463.023438 Z M 884 547.164062 C 883.617188 547.164062 883 547.085938 882.230469 547.007812 C 881.460938 546.929688 880.535156 546.855469 879.535156 546.699219 C 878.535156 546.546875 877.304688 546.316406 876.070312 546.007812 C 874.839844 545.699219 873.53125 545.238281 872.144531 544.777344 C 870.761719 544.3125 869.375 543.699219 867.910156 543.003906 C 866.449219 542.3125 864.984375 541.621094 863.601562 540.695312 C 862.214844 539.773438 860.753906 538.925781 859.445312 537.847656 C 858.136719 536.769531 856.824219 535.691406 855.671875 534.460938 C 855.054688 533.84375 854.515625 533.230469 853.976562 532.613281 C 853.4375 531.996094 852.976562 531.304688 852.4375 530.6875 C 851.4375 529.457031 850.667969 527.992188 849.976562 526.761719 C 849.667969 526.070312 849.359375 525.453125 849.050781 524.761719 C 848.898438 524.453125 848.820312 524.144531 848.667969 523.835938 C 848.589844 523.527344 848.433594 523.222656 848.359375 522.914062 C 848.203125 522.296875 847.972656 521.679688 847.894531 521.144531 C 847.820312 520.527344 847.664062 519.988281 847.664062 519.449219 C 847.589844 518.371094 847.589844 517.449219 847.664062 516.753906 C 847.664062 516.371094 847.742188 516.0625 847.820312 515.753906 C 847.894531 515.445312 847.894531 515.214844 847.972656 515.0625 C 848.050781 514.675781 848.203125 514.445312 848.203125 514.445312 C 848.203125 514.445312 848.28125 514.675781 848.511719 514.984375 C 848.742188 515.292969 849.050781 515.753906 849.511719 516.292969 C 849.898438 516.832031 850.515625 517.449219 851.050781 518.21875 C 851.746094 518.910156 852.359375 519.679688 853.207031 520.449219 C 853.4375 520.605469 853.59375 520.835938 853.824219 521.066406 C 854.054688 521.296875 854.285156 521.449219 854.515625 521.679688 C 854.980469 522.066406 855.363281 522.527344 855.824219 522.914062 C 856.828125 523.761719 857.75 524.605469 858.828125 525.453125 C 859.367188 525.914062 859.90625 526.300781 860.445312 526.761719 C 860.984375 527.222656 861.597656 527.609375 862.136719 528.070312 C 863.214844 528.996094 864.449219 529.839844 865.601562 530.765625 C 866.679688 531.765625 867.988281 532.535156 869.144531 533.460938 C 870.296875 534.382812 871.53125 535.230469 872.609375 536.152344 C 873.761719 537.078125 874.761719 538 875.839844 538.769531 C 876.917969 539.617188 877.84375 540.464844 878.765625 541.234375 C 879.613281 542.082031 880.535156 542.773438 881.230469 543.46875 C 881.921875 544.160156 882.613281 544.777344 883.078125 545.316406 C 883.617188 545.855469 884 546.316406 884.230469 546.625 C 884.460938 546.929688 884.617188 547.085938 884.617188 547.085938 C 884.617188 547.085938 884.460938 547.238281 884 547.164062 Z M 962.828125 561.710938 C 961.445312 561.402344 959.75 560.941406 957.824219 560.328125 C 955.976562 559.710938 953.898438 558.863281 951.667969 557.941406 C 950.511719 557.476562 949.359375 556.9375 948.203125 556.398438 C 947.046875 555.785156 945.894531 555.167969 944.664062 554.476562 C 942.277344 553.089844 939.660156 551.703125 937.273438 549.933594 C 934.808594 548.164062 932.269531 546.394531 929.957031 544.3125 C 928.804688 543.3125 927.574219 542.234375 926.417969 541.15625 C 925.261719 540.082031 924.183594 538.925781 923.03125 537.769531 C 921.953125 536.617188 920.796875 535.539062 919.796875 534.304688 C 918.796875 533.152344 917.796875 531.921875 916.792969 530.6875 C 916.332031 530.074219 915.792969 529.457031 915.332031 528.917969 C 914.871094 528.300781 914.410156 527.6875 914.023438 527.070312 C 913.175781 525.839844 912.328125 524.605469 911.484375 523.375 C 910.714844 522.144531 909.945312 520.910156 909.25 519.679688 C 908.558594 518.449219 907.789062 517.292969 907.25 516.0625 C 906.632812 514.832031 906.015625 513.753906 905.554688 512.597656 C 905.015625 511.441406 904.554688 510.363281 904.09375 509.289062 C 903.167969 507.132812 902.476562 505.128906 901.9375 503.28125 C 901.398438 501.433594 900.9375 499.894531 900.707031 498.511719 C 900.398438 497.203125 900.242188 496.125 900.167969 495.355469 C 900.089844 494.660156 900.089844 494.199219 900.089844 494.199219 C 900.089844 494.199219 900.398438 494.507812 900.9375 495.046875 C 901.476562 495.585938 902.246094 496.355469 903.167969 497.355469 C 904.09375 498.355469 905.246094 499.511719 906.554688 500.894531 C 907.789062 502.207031 909.25 503.746094 910.789062 505.4375 C 913.871094 508.671875 917.410156 512.519531 921.183594 516.601562 C 922.183594 517.601562 923.109375 518.601562 924.109375 519.679688 C 924.570312 520.21875 925.03125 520.757812 925.570312 521.21875 C 926.03125 521.757812 926.570312 522.21875 927.109375 522.757812 C 928.109375 523.835938 929.113281 524.835938 930.113281 525.914062 C 931.113281 526.992188 932.191406 527.992188 933.191406 529.070312 C 934.191406 530.148438 935.195312 531.226562 936.195312 532.226562 C 937.273438 533.230469 938.273438 534.230469 939.273438 535.308594 C 941.273438 537.386719 943.355469 539.308594 945.277344 541.234375 C 947.203125 543.234375 949.203125 545.007812 951.050781 546.777344 C 951.976562 547.703125 952.824219 548.546875 953.746094 549.394531 C 954.59375 550.242188 955.515625 551.011719 956.363281 551.78125 C 957.210938 552.550781 957.980469 553.320312 958.75 554.015625 C 959.519531 554.707031 960.210938 555.476562 960.90625 556.09375 C 962.292969 557.324219 963.523438 558.480469 964.445312 559.402344 C 966.449219 561.328125 967.527344 562.558594 967.527344 562.558594 C 967.527344 562.558594 965.601562 562.40625 962.828125 561.710938 Z M 1026.648438 546.085938 C 1025.109375 545.699219 1023.335938 545.160156 1021.183594 544.546875 C 1019.101562 543.851562 1016.714844 543.160156 1014.253906 542.234375 C 1011.789062 541.3125 1009.09375 540.234375 1006.324219 539.003906 C 1003.554688 537.847656 1000.628906 536.386719 997.703125 534.921875 C 994.777344 533.382812 991.773438 531.84375 988.847656 529.996094 C 987.386719 529.070312 985.925781 528.148438 984.460938 527.222656 L 982.230469 525.839844 C 981.535156 525.375 980.765625 524.835938 980.074219 524.300781 C 978.609375 523.296875 977.226562 522.21875 975.839844 521.21875 C 975.148438 520.679688 974.453125 520.140625 973.761719 519.679688 C 973.066406 519.140625 972.375 518.601562 971.757812 517.988281 C 969.066406 515.753906 966.449219 513.597656 964.136719 511.289062 C 962.984375 510.132812 961.753906 509.054688 960.675781 507.824219 C 959.597656 506.671875 958.519531 505.515625 957.59375 504.359375 C 956.59375 503.207031 955.671875 502.050781 954.824219 500.972656 C 953.976562 499.820312 953.128906 498.816406 952.359375 497.664062 C 951.667969 496.507812 950.898438 495.507812 950.28125 494.507812 C 949.664062 493.507812 949.128906 492.503906 948.589844 491.503906 C 948.050781 490.582031 947.664062 489.65625 947.28125 488.808594 C 946.894531 487.964844 946.585938 487.195312 946.277344 486.425781 C 945.738281 484.960938 945.433594 483.804688 945.277344 483.035156 C 945.125 482.191406 945.125 481.804688 945.125 481.804688 C 945.125 481.804688 945.199219 481.882812 945.355469 482.035156 C 945.507812 482.191406 945.738281 482.421875 946.046875 482.730469 C 946.664062 483.269531 947.511719 484.113281 948.664062 485.117188 C 949.203125 485.578125 949.820312 486.117188 950.511719 486.730469 C 951.207031 487.269531 951.898438 487.964844 952.746094 488.578125 C 953.59375 489.195312 954.363281 489.886719 955.285156 490.582031 C 956.210938 491.273438 957.132812 492.042969 958.132812 492.8125 C 959.136719 493.582031 960.210938 494.351562 961.289062 495.121094 C 962.367188 495.894531 963.445312 496.816406 964.675781 497.585938 C 965.832031 498.433594 967.0625 499.28125 968.21875 500.203125 C 969.449219 501.050781 970.683594 501.972656 971.992188 502.820312 C 974.53125 504.667969 977.226562 506.4375 979.921875 508.363281 C 980.613281 508.824219 981.230469 509.363281 981.921875 509.828125 C 982.613281 510.289062 983.308594 510.75 984 511.210938 C 985.386719 512.136719 986.769531 513.136719 988.078125 514.058594 L 990.160156 515.523438 L 992.238281 516.910156 C 993.621094 517.832031 995.007812 518.832031 996.316406 519.757812 C 999.011719 521.679688 1001.707031 523.527344 1004.246094 525.375 C 1006.785156 527.222656 1009.25 529.148438 1011.636719 530.84375 C 1014.023438 532.613281 1016.179688 534.304688 1018.257812 535.921875 C 1018.71875 536.308594 1019.257812 536.769531 1019.71875 537.078125 C 1020.179688 537.460938 1020.71875 537.847656 1021.183594 538.234375 C 1022.105469 539.003906 1022.953125 539.695312 1023.800781 540.3125 C 1025.414062 541.621094 1026.800781 542.851562 1027.957031 543.929688 C 1030.265625 546.007812 1031.496094 547.316406 1031.496094 547.316406 C 1031.496094 547.316406 1029.648438 546.855469 1026.648438 546.085938 Z M 1114.792969 523.453125 C 1112.867188 523.605469 1110.558594 523.761719 1107.941406 523.835938 C 1105.324219 523.835938 1102.320312 523.914062 1099.011719 523.683594 C 1097.394531 523.605469 1095.699219 523.453125 1093.929688 523.296875 C 1092.160156 523.144531 1090.386719 522.914062 1088.539062 522.683594 C 1084.84375 522.144531 1080.996094 521.449219 1076.992188 520.527344 C 1073.066406 519.601562 1068.988281 518.523438 1064.90625 517.292969 C 1062.90625 516.675781 1060.828125 515.984375 1058.824219 515.292969 C 1056.824219 514.597656 1054.746094 513.828125 1052.746094 513.058594 C 1048.742188 511.519531 1044.816406 509.75 1040.964844 507.980469 C 1037.195312 506.132812 1033.5 504.285156 1030.035156 502.28125 C 1026.570312 500.359375 1023.261719 498.277344 1020.179688 496.355469 C 1017.101562 494.351562 1014.332031 492.351562 1011.789062 490.503906 C 1006.710938 486.730469 1002.707031 483.191406 1000.011719 480.648438 C 997.316406 478.109375 995.933594 476.492188 995.933594 476.492188 C 995.933594 476.492188 998.011719 477.1875 1001.472656 478.570312 C 1004.9375 479.878906 1009.867188 481.882812 1015.714844 484.191406 C 1021.488281 486.578125 1028.1875 489.347656 1035.421875 492.273438 C 1038.964844 493.738281 1042.660156 495.277344 1046.429688 496.738281 C 1050.203125 498.203125 1053.976562 499.742188 1057.824219 501.28125 C 1059.75 502.050781 1061.675781 502.742188 1063.523438 503.515625 C 1065.445312 504.285156 1067.292969 504.976562 1069.21875 505.667969 C 1072.992188 507.054688 1076.761719 508.441406 1080.378906 509.75 C 1084 511.058594 1087.539062 512.289062 1090.851562 513.367188 C 1092.542969 513.984375 1094.160156 514.445312 1095.777344 514.984375 C 1096.546875 515.214844 1097.316406 515.523438 1098.085938 515.753906 C 1098.855469 515.984375 1099.625 516.214844 1100.394531 516.445312 C 1103.398438 517.449219 1106.09375 518.21875 1108.554688 518.988281 C 1111.019531 519.679688 1113.175781 520.371094 1114.945312 520.910156 C 1118.5625 521.914062 1120.640625 522.605469 1120.640625 522.605469 C 1120.640625 522.605469 1118.5625 523.066406 1114.792969 523.453125 Z M 1162.367188 481.113281 C 1160.75 481.652344 1158.671875 482.265625 1156.363281 482.882812 C 1153.976562 483.421875 1151.359375 484.039062 1148.355469 484.5 C 1146.890625 484.730469 1145.351562 484.960938 1143.738281 485.113281 C 1142.121094 485.269531 1140.425781 485.421875 1138.734375 485.5 C 1135.34375 485.652344 1131.726562 485.730469 1127.957031 485.578125 C 1124.261719 485.421875 1120.332031 485.113281 1116.484375 484.578125 C 1114.558594 484.34375 1112.636719 484.039062 1110.632812 483.730469 C 1108.710938 483.421875 1106.707031 483.035156 1104.785156 482.574219 C 1100.933594 481.726562 1097.085938 480.726562 1093.390625 479.648438 C 1089.695312 478.496094 1086.078125 477.339844 1082.691406 475.953125 C 1079.300781 474.644531 1075.992188 473.183594 1072.992188 471.796875 C 1069.988281 470.335938 1067.140625 468.871094 1064.597656 467.488281 C 1059.519531 464.636719 1055.515625 461.867188 1052.820312 459.789062 C 1050.125 457.710938 1048.664062 456.402344 1048.664062 456.402344 C 1048.664062 456.402344 1050.664062 456.785156 1053.976562 457.554688 C 1057.285156 458.324219 1061.980469 459.402344 1067.601562 460.710938 C 1073.144531 462.019531 1079.535156 463.636719 1086.460938 465.253906 C 1089.847656 466.101562 1093.390625 466.871094 1097.007812 467.71875 C 1100.550781 468.5625 1104.246094 469.335938 1107.863281 470.105469 C 1109.710938 470.488281 1111.480469 470.875 1113.328125 471.257812 C 1114.253906 471.414062 1115.175781 471.644531 1116.023438 471.796875 C 1116.945312 471.953125 1117.792969 472.105469 1118.71875 472.335938 C 1122.335938 473.027344 1125.800781 473.644531 1129.261719 474.261719 C 1132.726562 474.875 1136.039062 475.414062 1139.195312 475.878906 C 1140.8125 476.183594 1142.351562 476.261719 1143.8125 476.492188 C 1144.582031 476.570312 1145.277344 476.722656 1146.046875 476.800781 C 1146.738281 476.878906 1147.507812 476.957031 1148.199219 477.03125 C 1151.050781 477.417969 1153.589844 477.648438 1155.898438 477.957031 C 1158.207031 478.1875 1160.289062 478.339844 1161.980469 478.570312 C 1165.367188 478.800781 1167.371094 479.109375 1167.371094 479.109375 C 1167.371094 479.109375 1165.597656 479.878906 1162.367188 481.113281 Z M 1166.292969 399.664062 C 1160.441406 404.515625 1153.511719 409.828125 1145.507812 414.984375 C 1141.503906 417.527344 1137.269531 420.144531 1132.726562 422.605469 C 1128.1875 425.070312 1123.414062 427.457031 1118.332031 429.6875 C 1108.246094 434.152344 1097.164062 438.078125 1085.308594 441.003906 C 1079.378906 442.46875 1073.296875 443.621094 1067.0625 444.546875 C 1060.828125 445.394531 1054.4375 446.007812 1048.046875 446.316406 C 1041.582031 446.625 1035.117188 446.546875 1028.570312 446.164062 C 1026.957031 446.085938 1025.339844 445.933594 1023.722656 445.855469 C 1022.105469 445.777344 1020.488281 445.625 1018.871094 445.394531 L 1014.097656 444.855469 C 1012.484375 444.699219 1010.941406 444.46875 1009.402344 444.390625 C 997.164062 443.238281 984.769531 442.777344 972.761719 443.546875 C 966.753906 443.929688 960.828125 444.621094 955.132812 445.699219 C 949.359375 446.703125 943.816406 448.085938 938.425781 449.859375 C 927.648438 453.246094 917.796875 458.019531 908.710938 463.328125 C 899.628906 468.640625 891.390625 474.335938 883.691406 479.648438 C 879.84375 482.265625 876.070312 484.808594 872.453125 487.117188 C 868.835938 489.425781 865.371094 491.582031 862.0625 493.582031 C 858.75 495.507812 855.59375 497.277344 852.59375 498.894531 C 849.589844 500.433594 846.820312 501.742188 844.355469 502.898438 C 839.351562 505.207031 835.195312 506.746094 832.421875 507.746094 C 831.039062 508.285156 829.960938 508.59375 829.191406 508.824219 C 828.574219 509.054688 828.1875 509.132812 828.113281 509.132812 C 828.265625 509.058594 829.652344 508.363281 832.113281 507.054688 C 834.734375 505.667969 838.425781 503.589844 843.046875 500.742188 C 845.355469 499.355469 847.894531 497.664062 850.589844 495.816406 C 853.285156 493.96875 856.210938 491.964844 859.210938 489.734375 C 865.21875 485.269531 871.835938 479.878906 879.074219 474.03125 C 886.308594 468.179688 894.238281 461.789062 903.398438 455.707031 C 908.019531 452.707031 912.867188 449.703125 918.105469 447.007812 C 920.722656 445.699219 923.414062 444.390625 926.1875 443.160156 C 928.957031 441.929688 931.804688 440.773438 934.730469 439.773438 C 940.582031 437.695312 946.664062 436 952.898438 434.691406 C 959.132812 433.460938 965.523438 432.535156 971.992188 432 C 984.921875 430.996094 998.011719 431.382812 1010.941406 432.769531 C 1012.558594 432.921875 1014.175781 433.152344 1015.714844 433.308594 L 1020.410156 433.84375 C 1021.953125 434 1023.492188 434.230469 1024.953125 434.308594 C 1026.492188 434.460938 1028.03125 434.617188 1029.496094 434.691406 C 1035.578125 435.15625 1041.660156 435.230469 1047.742188 435.15625 C 1053.746094 435.078125 1059.75 434.617188 1065.675781 434 C 1071.605469 433.382812 1077.378906 432.460938 1082.996094 431.304688 C 1094.3125 428.996094 1105.015625 425.839844 1114.945312 422.066406 C 1119.871094 420.144531 1124.644531 418.140625 1129.1875 416.0625 C 1133.730469 413.984375 1138.039062 411.828125 1142.121094 409.597656 C 1150.28125 405.207031 1157.515625 400.742188 1163.675781 396.507812 C 1169.832031 392.199219 1175.144531 388.347656 1179.300781 384.886719 C 1183.460938 381.5 1186.691406 378.648438 1188.847656 376.726562 C 1190.695312 374.953125 1191.773438 373.953125 1192.003906 373.722656 C 1191.851562 373.953125 1190.925781 375.1875 1189.308594 377.1875 C 1187.460938 379.417969 1184.691406 382.652344 1180.917969 386.503906 C 1176.914062 390.195312 1172.140625 394.816406 1166.292969 399.664062 Z M 1166.292969 399.664062 " fill-opacity="1" fill-rule="nonzero"/></g><g clip-path="url(#5d0c1fc40a)"><path fill="#244abb" d="M 276.078125 450.472656 C 276.078125 450.472656 280.851562 486.269531 333.273438 503.28125 C 333.273438 503.28125 313.875 509.210938 299.171875 500.820312 C 299.171875 500.820312 318.570312 534.152344 375.769531 535.539062 C 375.769531 535.539062 364.375 541.773438 347.207031 542.160156 C 347.207031 542.160156 394.628906 576.878906 438.894531 552.9375 C 438.585938 553.320312 429.039062 566.5625 412.257812 570.101562 C 412.257812 570.101562 452.363281 585.730469 492.550781 565.40625 C 492.550781 565.40625 487.621094 575.800781 475.535156 581.574219 C 475.535156 581.574219 521.726562 598.277344 549.207031 569.5625 C 549.207031 569.5625 546.976562 578.957031 536.042969 589.886719 C 536.042969 589.886719 576.691406 601.894531 613.566406 556.554688 C 613.566406 556.554688 611.949219 570.101562 600.402344 584.730469 C 600.402344 584.730469 637.273438 585.730469 659.753906 555.554688 C 659.753906 555.554688 662.523438 563.40625 650.4375 577.953125 C 650.4375 577.953125 691.625 563.328125 693.316406 535.769531 C 693.316406 535.308594 693.394531 534.921875 693.394531 534.539062 C 695.164062 516.523438 686.003906 499.203125 669.375 490.425781 C 639.816406 474.800781 616.257812 456.941406 590.316406 436.695312 C 567.222656 418.601562 541.046875 402.050781 510.179688 400.28125 C 479 398.433594 447.207031 405.976562 416.492188 403.207031 C 392.703125 401.050781 369.6875 394.355469 348.59375 383.730469 C 335.429688 377.109375 323.113281 369.105469 311.644531 360.175781 C 306.945312 356.554688 272.535156 330.613281 274.460938 325.839844 C 274.460938 325.839844 257.988281 367.5625 296.476562 399.820312 C 296.476562 399.820312 276.691406 396.664062 266.070312 381.730469 C 266.070312 381.730469 259.449219 428.609375 307.484375 463.023438 C 307.253906 463.023438 283.46875 458.863281 276.078125 450.472656 Z M 600.941406 547.164062 C 600.941406 547.164062 601.09375 547.007812 601.324219 546.699219 C 601.554688 546.394531 601.941406 545.929688 602.480469 545.390625 C 603.019531 544.851562 603.632812 544.238281 604.328125 543.542969 C 605.019531 542.851562 605.941406 542.160156 606.789062 541.3125 C 607.714844 540.464844 608.636719 539.695312 609.714844 538.847656 C 610.792969 538 611.871094 537.078125 612.949219 536.230469 C 614.101562 535.308594 615.257812 534.460938 616.414062 533.535156 C 617.566406 532.613281 618.800781 531.765625 619.953125 530.84375 C 621.109375 529.917969 622.339844 529.070312 623.417969 528.148438 C 623.957031 527.6875 624.574219 527.222656 625.113281 526.839844 C 625.652344 526.378906 626.191406 525.914062 626.726562 525.53125 C 627.804688 524.683594 628.730469 523.761719 629.730469 522.988281 C 630.191406 522.605469 630.578125 522.144531 631.039062 521.757812 C 631.269531 521.527344 631.5 521.375 631.730469 521.144531 C 631.886719 520.910156 632.117188 520.757812 632.347656 520.527344 C 633.195312 519.757812 633.8125 518.988281 634.503906 518.292969 C 635.121094 517.601562 635.660156 516.984375 636.042969 516.371094 C 636.503906 515.832031 636.8125 515.367188 637.042969 515.0625 C 637.273438 514.753906 637.351562 514.523438 637.351562 514.523438 C 637.351562 514.523438 637.429688 514.675781 637.582031 515.136719 C 637.660156 515.367188 637.660156 515.601562 637.738281 515.832031 C 637.8125 516.140625 637.890625 516.445312 637.890625 516.832031 C 637.96875 517.601562 637.96875 518.523438 637.890625 519.527344 C 637.8125 520.066406 637.738281 520.605469 637.660156 521.21875 C 637.582031 521.835938 637.351562 522.375 637.199219 522.988281 C 637.121094 523.296875 637.042969 523.605469 636.890625 523.914062 C 636.734375 524.222656 636.660156 524.53125 636.503906 524.835938 C 636.273438 525.453125 635.964844 526.144531 635.582031 526.839844 C 634.8125 528.070312 634.117188 529.535156 633.117188 530.765625 C 632.65625 531.382812 632.117188 532.074219 631.578125 532.691406 C 631.039062 533.304688 630.421875 533.921875 629.882812 534.539062 C 628.730469 535.769531 627.421875 536.847656 626.113281 537.925781 C 624.804688 539.003906 623.339844 539.847656 621.957031 540.773438 C 620.570312 541.695312 619.105469 542.390625 617.644531 543.082031 C 616.183594 543.773438 614.796875 544.390625 613.410156 544.851562 C 612.023438 545.316406 610.714844 545.699219 609.484375 546.085938 C 608.253906 546.46875 607.097656 546.625 606.019531 546.777344 C 605.019531 546.929688 604.097656 547.085938 603.324219 547.085938 C 602.554688 547.164062 601.941406 547.164062 601.554688 547.238281 C 601.171875 547.238281 600.941406 547.164062 600.941406 547.164062 Z M 518.414062 562.636719 C 518.414062 562.636719 519.492188 561.402344 521.496094 559.480469 C 522.496094 558.480469 523.648438 557.402344 525.035156 556.167969 C 525.730469 555.554688 526.421875 554.859375 527.191406 554.089844 C 527.960938 553.398438 528.730469 552.628906 529.578125 551.859375 C 530.425781 551.089844 531.269531 550.320312 532.195312 549.472656 C 533.042969 548.625 533.964844 547.777344 534.890625 546.855469 C 536.738281 545.082031 538.738281 543.3125 540.664062 541.3125 C 542.585938 539.386719 544.742188 537.460938 546.667969 535.382812 C 547.667969 534.382812 548.667969 533.304688 549.746094 532.304688 C 550.746094 531.304688 551.75 530.226562 552.75 529.148438 C 553.75 528.070312 554.828125 527.070312 555.828125 525.992188 C 556.828125 524.914062 557.828125 523.835938 558.832031 522.835938 C 559.371094 522.296875 559.832031 521.835938 560.371094 521.296875 C 560.832031 520.757812 561.292969 520.21875 561.832031 519.757812 C 562.757812 518.757812 563.757812 517.679688 564.757812 516.679688 C 568.53125 512.597656 572.070312 508.75 575.152344 505.515625 C 576.691406 503.820312 578.152344 502.359375 579.382812 500.972656 C 580.695312 499.585938 581.769531 498.433594 582.773438 497.433594 C 583.695312 496.429688 584.464844 495.660156 585.003906 495.121094 C 585.542969 494.585938 585.851562 494.277344 585.851562 494.277344 C 585.851562 494.277344 585.851562 494.660156 585.773438 495.429688 C 585.695312 496.199219 585.542969 497.203125 585.234375 498.585938 C 584.925781 499.894531 584.542969 501.511719 584.003906 503.359375 C 583.464844 505.128906 582.773438 507.210938 581.847656 509.363281 C 581.386719 510.441406 580.925781 511.519531 580.386719 512.675781 C 579.847656 513.828125 579.230469 514.984375 578.691406 516.140625 C 578.152344 517.371094 577.382812 518.523438 576.691406 519.757812 C 575.996094 520.988281 575.226562 522.21875 574.457031 523.453125 C 573.609375 524.683594 572.765625 525.914062 571.917969 527.148438 C 571.457031 527.761719 570.992188 528.378906 570.609375 528.996094 C 570.148438 529.609375 569.609375 530.148438 569.144531 530.765625 C 568.144531 531.996094 567.144531 533.152344 566.144531 534.382812 C 565.144531 535.539062 563.988281 536.691406 562.910156 537.847656 C 561.757812 539.003906 560.753906 540.15625 559.523438 541.234375 C 558.367188 542.3125 557.136719 543.3125 555.980469 544.390625 C 553.671875 546.46875 551.132812 548.238281 548.667969 550.011719 C 546.28125 551.78125 543.664062 553.242188 541.277344 554.550781 C 540.046875 555.246094 538.890625 555.863281 537.738281 556.476562 C 536.507812 557.015625 535.351562 557.554688 534.273438 558.015625 C 532.042969 558.941406 530.039062 559.789062 528.113281 560.402344 C 526.191406 560.941406 524.496094 561.402344 523.109375 561.789062 C 520.03125 562.40625 518.414062 562.636719 518.414062 562.636719 Z M 454.136719 547.164062 C 454.136719 547.164062 455.367188 545.855469 457.675781 543.773438 C 458.832031 542.773438 460.21875 541.542969 461.832031 540.15625 C 462.679688 539.464844 463.527344 538.769531 464.453125 538.078125 C 464.914062 537.695312 465.375 537.308594 465.914062 536.925781 C 466.375 536.539062 466.914062 536.152344 467.375 535.769531 C 469.378906 534.152344 471.609375 532.457031 473.996094 530.6875 C 476.382812 528.996094 478.847656 527.070312 481.386719 525.222656 C 483.925781 523.375 486.699219 521.527344 489.316406 519.601562 C 490.703125 518.601562 492.011719 517.679688 493.394531 516.753906 L 495.476562 515.367188 L 497.554688 513.90625 C 498.9375 512.984375 500.324219 511.980469 501.632812 511.058594 C 502.324219 510.597656 503.019531 510.132812 503.710938 509.671875 C 504.40625 509.210938 505.019531 508.671875 505.714844 508.210938 C 508.40625 506.285156 511.101562 504.515625 513.640625 502.667969 C 514.949219 501.742188 516.183594 500.894531 517.414062 500.050781 C 518.644531 499.203125 519.800781 498.277344 520.957031 497.433594 C 522.1875 496.585938 523.265625 495.738281 524.34375 494.96875 C 525.421875 494.121094 526.5 493.429688 527.5 492.660156 C 528.5 491.890625 529.421875 491.121094 530.347656 490.425781 C 531.269531 489.734375 532.042969 489.042969 532.886719 488.425781 C 533.734375 487.808594 534.425781 487.195312 535.121094 486.578125 C 535.8125 486.039062 536.429688 485.5 536.96875 484.960938 C 538.121094 483.960938 538.96875 483.113281 539.585938 482.574219 C 539.894531 482.265625 540.125 482.035156 540.277344 481.882812 C 540.433594 481.726562 540.507812 481.652344 540.507812 481.652344 C 540.507812 481.652344 540.507812 482.113281 540.355469 482.882812 C 540.199219 483.652344 539.894531 484.882812 539.355469 486.269531 C 539.125 487.039062 538.738281 487.808594 538.355469 488.65625 C 537.96875 489.503906 537.582031 490.425781 537.042969 491.351562 C 536.582031 492.273438 535.96875 493.273438 535.351562 494.351562 C 534.734375 495.355469 534.042969 496.429688 533.273438 497.507812 C 532.578125 498.664062 531.65625 499.664062 530.808594 500.820312 C 529.960938 501.972656 529.039062 503.128906 528.039062 504.207031 C 527.039062 505.363281 525.960938 506.515625 524.957031 507.671875 C 523.882812 508.824219 522.726562 509.980469 521.496094 511.136719 C 519.183594 513.445312 516.566406 515.675781 513.875 517.832031 C 513.179688 518.371094 512.566406 518.910156 511.871094 519.527344 C 511.179688 520.066406 510.484375 520.527344 509.792969 521.066406 C 508.40625 522.066406 506.945312 523.144531 505.558594 524.144531 C 504.867188 524.683594 504.097656 525.144531 503.402344 525.683594 L 501.171875 527.070312 C 499.707031 527.992188 498.246094 528.917969 496.785156 529.839844 C 493.859375 531.6875 490.855469 533.230469 487.929688 534.769531 C 485.003906 536.308594 482.15625 537.695312 479.308594 538.847656 C 476.539062 540.078125 473.84375 541.15625 471.378906 542.082031 C 468.917969 543.082031 466.53125 543.773438 464.453125 544.390625 C 462.371094 545.007812 460.523438 545.546875 458.984375 545.929688 C 455.984375 546.855469 454.136719 547.164062 454.136719 547.164062 Z M 364.914062 522.605469 C 364.914062 522.605469 366.992188 521.914062 370.609375 520.910156 C 372.382812 520.371094 374.535156 519.757812 377 518.988281 C 379.464844 518.21875 382.234375 517.449219 385.160156 516.445312 C 385.929688 516.214844 386.699219 515.984375 387.46875 515.753906 C 388.238281 515.523438 389.007812 515.214844 389.777344 514.984375 C 391.394531 514.445312 393.011719 513.984375 394.707031 513.367188 C 398.09375 512.289062 401.558594 511.058594 405.175781 509.75 C 408.792969 508.441406 412.566406 507.132812 416.335938 505.667969 C 418.261719 504.976562 420.109375 504.285156 422.035156 503.515625 C 423.957031 502.820312 425.882812 502.050781 427.730469 501.28125 C 431.582031 499.820312 435.351562 498.277344 439.125 496.738281 C 442.894531 495.199219 446.589844 493.660156 450.132812 492.273438 C 457.367188 489.347656 464.066406 486.578125 469.839844 484.191406 C 475.691406 481.804688 480.539062 479.878906 484.082031 478.570312 C 487.546875 477.261719 489.625 476.492188 489.625 476.492188 C 489.625 476.492188 488.238281 478.109375 485.542969 480.648438 C 482.851562 483.191406 478.921875 486.730469 473.765625 490.503906 C 471.226562 492.429688 468.378906 494.351562 465.375 496.355469 C 462.296875 498.355469 459.0625 500.359375 455.519531 502.28125 C 452.058594 504.285156 448.363281 506.132812 444.589844 507.980469 C 440.742188 509.75 436.816406 511.519531 432.8125 513.058594 C 430.808594 513.828125 428.808594 514.597656 426.730469 515.292969 C 424.730469 515.984375 422.648438 516.675781 420.648438 517.292969 C 416.570312 518.523438 412.566406 519.601562 408.5625 520.527344 C 404.558594 521.449219 400.710938 522.144531 397.015625 522.683594 C 395.167969 522.988281 393.398438 523.144531 391.625 523.296875 C 389.855469 523.453125 388.164062 523.605469 386.546875 523.683594 C 383.3125 523.914062 380.308594 523.914062 377.617188 523.835938 C 374.921875 523.761719 372.6875 523.605469 370.765625 523.453125 C 367.070312 523.066406 364.914062 522.605469 364.914062 522.605469 Z M 318.261719 479.035156 C 318.261719 479.035156 320.265625 478.726562 323.652344 478.496094 C 325.34375 478.265625 327.425781 478.109375 329.734375 477.878906 C 332.042969 477.570312 334.660156 477.417969 337.433594 476.957031 C 338.125 476.878906 338.816406 476.800781 339.585938 476.722656 C 340.28125 476.648438 341.050781 476.492188 341.820312 476.417969 C 343.359375 476.183594 344.898438 476.03125 346.4375 475.800781 C 349.59375 475.339844 352.980469 474.800781 356.367188 474.183594 C 359.832031 473.566406 363.296875 472.953125 366.914062 472.257812 C 367.839844 472.105469 368.6875 471.953125 369.609375 471.71875 C 370.535156 471.566406 371.378906 471.335938 372.304688 471.179688 C 374.152344 470.796875 375.921875 470.410156 377.769531 470.027344 C 381.386719 469.257812 385.007812 468.410156 388.625 467.640625 C 392.164062 466.792969 395.707031 465.945312 399.171875 465.175781 C 406.023438 463.484375 412.488281 461.945312 418.03125 460.636719 C 423.574219 459.328125 428.269531 458.171875 431.65625 457.480469 C 434.96875 456.710938 436.96875 456.324219 436.96875 456.324219 C 436.96875 456.324219 435.582031 457.710938 432.8125 459.710938 C 430.117188 461.789062 426.113281 464.5625 421.035156 467.410156 C 418.492188 468.871094 415.722656 470.257812 412.640625 471.71875 C 409.5625 473.105469 406.328125 474.570312 402.941406 475.878906 C 399.554688 477.1875 395.9375 478.417969 392.242188 479.574219 C 388.546875 480.648438 384.699219 481.652344 380.847656 482.496094 C 378.925781 482.882812 377 483.34375 375 483.652344 C 373.074219 484.039062 371.148438 484.269531 369.148438 484.5 C 365.300781 485.039062 361.449219 485.347656 357.679688 485.5 C 353.984375 485.652344 350.363281 485.578125 346.898438 485.421875 C 345.207031 485.347656 343.511719 485.191406 341.898438 485.039062 C 340.28125 484.882812 338.742188 484.652344 337.277344 484.421875 C 334.351562 484.039062 331.65625 483.421875 329.273438 482.804688 C 326.960938 482.191406 324.882812 481.574219 323.265625 481.035156 C 320.035156 479.878906 318.261719 479.035156 318.261719 479.035156 Z M 304.867188 386.269531 C 301.097656 382.421875 298.324219 379.113281 296.476562 376.957031 C 294.859375 374.953125 294.015625 373.800781 293.78125 373.492188 C 294.015625 373.722656 295.09375 374.800781 296.9375 376.496094 C 299.09375 378.496094 302.25 381.265625 306.484375 384.65625 C 310.640625 388.117188 315.953125 391.96875 322.113281 396.277344 C 328.269531 400.589844 335.585938 404.976562 343.667969 409.367188 C 347.746094 411.519531 352.058594 413.753906 356.601562 415.832031 C 361.140625 417.910156 365.914062 419.910156 370.839844 421.835938 C 380.773438 425.609375 391.472656 428.765625 402.789062 431.074219 C 408.410156 432.230469 414.257812 433.152344 420.109375 433.769531 C 426.039062 434.460938 431.964844 434.847656 438.046875 434.921875 C 444.128906 435 450.210938 434.921875 456.292969 434.460938 C 457.832031 434.382812 459.371094 434.230469 460.832031 434.078125 C 462.371094 433.921875 463.914062 433.769531 465.375 433.613281 L 470.070312 433.074219 C 471.609375 432.921875 473.226562 432.691406 474.84375 432.535156 C 487.777344 431.152344 500.863281 430.765625 513.796875 431.765625 C 520.261719 432.304688 526.652344 433.152344 532.886719 434.460938 C 539.125 435.769531 545.203125 437.464844 551.054688 439.542969 C 553.980469 440.542969 556.828125 441.699219 559.601562 442.929688 C 562.371094 444.160156 565.066406 445.394531 567.683594 446.777344 C 572.917969 449.472656 577.769531 452.476562 582.386719 455.476562 C 591.546875 461.558594 599.476562 467.949219 606.714844 473.800781 C 613.949219 479.648438 620.492188 484.960938 626.574219 489.503906 C 629.578125 491.734375 632.5 493.738281 635.195312 495.585938 C 637.890625 497.433594 640.355469 499.050781 642.742188 500.511719 C 647.359375 503.359375 651.132812 505.515625 653.671875 506.824219 C 656.136719 508.132812 657.519531 508.824219 657.675781 508.902344 C 657.597656 508.902344 657.214844 508.75 656.597656 508.59375 C 655.902344 508.363281 654.75 508.054688 653.363281 507.515625 C 650.59375 506.515625 646.433594 505.054688 641.433594 502.667969 C 638.890625 501.511719 636.121094 500.203125 633.195312 498.664062 C 630.191406 497.125 627.113281 495.355469 623.726562 493.351562 C 620.414062 491.351562 616.953125 489.273438 613.332031 486.886719 C 609.714844 484.5 606.019531 482.035156 602.09375 479.417969 C 594.394531 474.183594 586.082031 468.410156 577.074219 463.097656 C 568.066406 457.785156 558.136719 453.015625 547.359375 449.625 C 541.972656 447.855469 536.351562 446.546875 530.65625 445.46875 C 524.882812 444.390625 519.03125 443.699219 513.027344 443.3125 C 501.015625 442.46875 488.625 442.929688 476.382812 444.160156 C 474.84375 444.316406 473.304688 444.46875 471.6875 444.621094 L 466.914062 445.160156 C 465.296875 445.316406 463.679688 445.46875 462.066406 445.625 C 460.449219 445.777344 458.832031 445.855469 457.214844 445.929688 C 450.671875 446.316406 444.203125 446.394531 437.738281 446.085938 C 431.273438 445.777344 424.960938 445.238281 418.722656 444.316406 C 412.488281 443.390625 406.40625 442.238281 400.480469 440.773438 C 388.625 437.847656 377.539062 434 367.453125 429.457031 C 362.375 427.226562 357.601562 424.839844 353.058594 422.375 C 348.515625 419.910156 344.28125 417.371094 340.28125 414.753906 C 332.273438 409.597656 325.421875 404.363281 319.496094 399.433594 C 313.492188 394.816406 308.71875 390.195312 304.867188 386.269531 Z M 304.867188 386.269531 " fill-opacity="1" fill-rule="nonzero"/></g></svg>