<?xml version="1.0" encoding="UTF-8"?>
<svg xmlns="http://www.w3.org/2000/svg" width="120" height="120" viewBox="0 0 120 120">
  <!-- Transparent background; mark is designed for dark/gradient navbars -->
  <g fill="#ffffff" transform="translate(18 12)">
    <path d="M42 18c-14 0-28 7-36 18 11-7 22-8 35-4-12 0-21 3-31 11 14-3 24-2 37 5-11 1-18 4-25 11 14-4 22-4 35 2 12-6 21-6 35-2-7-7-14-10-25-11 13-7 23-8 37-5-10-8-19-11-31-11 13-4 24-3 35 4C70 25 56 18 42 18z" opacity="0.95"/>
    <rect x="38" y="26" width="8" height="72" rx="4"/>
    <circle cx="42" cy="20" r="9"/>
    <path d="M26 48c12-7 24-7 35 0 9 5 9 15 0 20-8 5-15 5-22 0-6-4-6-9 0-13 7-5 15-5 22 0"
          fill="none" stroke="#ffffff" stroke-width="7" stroke-linecap="round"/>
    <path d="M58 78c-12 7-24 7-35 0-9-5-9-15 0-20 8-5 15-5 22 0 6 4 6 9 0 13-7 5-15 5-22 0"
          fill="none" stroke="#ffffff" stroke-width="7" stroke-linecap="round"/>
  </g>
</svg>

